<svg id="Layer_1" data-name="Layer 1" xmlns="http://www.w3.org/2000/svg" xmlns:xlink="http://www.w3.org/1999/xlink" viewBox="0 0 913.38 404.47">
  <defs>
    <style>
      .cls-1, .cls-2, .cls-41 {
        fill: #e1f0f5;
      }

      .cls-1 {
        stroke: #26485c;
      }

      .cls-1, .cls-2 {
        stroke-linecap: round;
        stroke-linejoin: round;
        stroke-width: 30px;
      }

      .cls-2 {
        stroke: #25485b;
      }

      .cls-3 {
        fill: #25485b;
      }

      .cls-4 {
        fill: url(#linear-gradient);
      }

      .cls-5 {
        fill: url(#linear-gradient-2);
      }

      .cls-6 {
        fill: url(#linear-gradient-3);
      }

      .cls-7 {
        fill: url(#linear-gradient-4);
      }

      .cls-8 {
        fill: url(#linear-gradient-5);
      }

      .cls-9 {
        fill: url(#linear-gradient-6);
      }

      .cls-10 {
        fill: url(#linear-gradient-7);
      }

      .cls-11 {
        fill: url(#linear-gradient-8);
      }

      .cls-12 {
        fill: url(#linear-gradient-9);
      }

      .cls-13 {
        fill: url(#linear-gradient-10);
      }

      .cls-14 {
        fill: url(#linear-gradient-11);
      }

      .cls-15 {
        fill: url(#linear-gradient-12);
      }

      .cls-16 {
        fill: url(#linear-gradient-13);
      }

      .cls-17 {
        fill: url(#linear-gradient-14);
      }

      .cls-18 {
        fill: url(#linear-gradient-15);
      }

      .cls-19 {
        fill: url(#linear-gradient-16);
      }

      .cls-20 {
        fill: url(#linear-gradient-17);
      }

      .cls-21 {
        fill: url(#linear-gradient-18);
      }

      .cls-22 {
        fill: url(#linear-gradient-19);
      }

      .cls-23 {
        fill: url(#linear-gradient-20);
      }

      .cls-24 {
        fill: url(#linear-gradient-21);
      }

      .cls-25 {
        fill: url(#linear-gradient-22);
      }

      .cls-26 {
        fill: url(#linear-gradient-23);
      }

      .cls-27 {
        fill: url(#linear-gradient-24);
      }

      .cls-28 {
        fill: url(#linear-gradient-25);
      }

      .cls-29 {
        fill: url(#linear-gradient-26);
      }

      .cls-30 {
        fill: url(#linear-gradient-27);
      }

      .cls-31 {
        fill: url(#linear-gradient-28);
      }

      .cls-32 {
        fill: url(#linear-gradient-29);
      }

      .cls-33 {
        fill: url(#linear-gradient-30);
      }

      .cls-34 {
        fill: url(#linear-gradient-31);
      }

      .cls-35 {
        fill: url(#linear-gradient-32);
      }

      .cls-36 {
        fill: url(#linear-gradient-33);
      }

      .cls-37 {
        fill: url(#linear-gradient-34);
      }

      .cls-38 {
        fill: url(#linear-gradient-35);
      }

      .cls-39 {
        fill: url(#linear-gradient-36);
      }

      .cls-40 {
        fill: #cbeaed;
      }

      .cls-42 {
        fill: #26485c;
      }
    </style>
    <linearGradient id="linear-gradient" x1="518.22" y1="53.84" x2="548.54" y2="53.84" gradientUnits="userSpaceOnUse">
      <stop offset="0.01" stop-color="#247794"/>
      <stop offset="0.19" stop-color="#8ebcc8"/>
      <stop offset="0.75" stop-color="#9ec0c8"/>
      <stop offset="0.81" stop-color="#9abec6"/>
      <stop offset="0.86" stop-color="#8eb8c1"/>
      <stop offset="0.91" stop-color="#7aadb7"/>
      <stop offset="0.97" stop-color="#5e9faa"/>
      <stop offset="1" stop-color="#4893a0"/>
    </linearGradient>
    <linearGradient id="linear-gradient-2" x1="518.22" y1="108.91" x2="898.37" y2="108.91" xlink:href="#linear-gradient"/>
    <linearGradient id="linear-gradient-3" x1="15.12" y1="47.42" x2="39.63" y2="47.42" xlink:href="#linear-gradient"/>
    <linearGradient id="linear-gradient-4" x1="322.49" y1="57.34" x2="392.96" y2="57.34" xlink:href="#linear-gradient"/>
    <linearGradient id="linear-gradient-5" x1="84.23" y1="61.53" x2="132.3" y2="61.53" xlink:href="#linear-gradient"/>
    <linearGradient id="linear-gradient-6" x1="139.97" y1="106.05" x2="180.71" y2="106.05" xlink:href="#linear-gradient"/>
    <linearGradient id="linear-gradient-7" x1="184.59" y1="98.75" x2="302.89" y2="98.75" xlink:href="#linear-gradient"/>
    <linearGradient id="linear-gradient-8" x1="296.48" y1="110.37" x2="394.12" y2="110.37" xlink:href="#linear-gradient"/>
    <linearGradient id="linear-gradient-9" x1="15.44" y1="230.79" x2="112.55" y2="230.79" xlink:href="#linear-gradient"/>
    <linearGradient id="linear-gradient-10" x1="84.23" y1="187.01" x2="222.43" y2="187.01" xlink:href="#linear-gradient"/>
    <linearGradient id="linear-gradient-11" x1="573.11" y1="183.88" x2="585.95" y2="183.88" xlink:href="#linear-gradient"/>
    <linearGradient id="linear-gradient-12" x1="677.69" y1="189.02" x2="717.01" y2="189.02" xlink:href="#linear-gradient"/>
    <linearGradient id="linear-gradient-13" x1="740.34" y1="188.78" x2="780.17" y2="188.78" xlink:href="#linear-gradient"/>
    <linearGradient id="linear-gradient-14" x1="609.26" y1="191.27" x2="634.43" y2="191.27" xlink:href="#linear-gradient"/>
    <linearGradient id="linear-gradient-15" x1="638.44" y1="214.54" x2="659.75" y2="214.54" xlink:href="#linear-gradient"/>
    <linearGradient id="linear-gradient-16" x1="573.26" y1="279.82" x2="624.09" y2="279.82" xlink:href="#linear-gradient"/>
    <linearGradient id="linear-gradient-17" x1="704.35" y1="279.82" x2="752.68" y2="279.82" xlink:href="#linear-gradient"/>
    <linearGradient id="linear-gradient-18" x1="609.26" y1="256.91" x2="681.57" y2="256.91" xlink:href="#linear-gradient"/>
    <linearGradient id="linear-gradient-19" x1="227.18" y1="193.24" x2="258.77" y2="193.24" xlink:href="#linear-gradient"/>
    <linearGradient id="linear-gradient-20" x1="374.27" y1="195.12" x2="404.95" y2="195.12" xlink:href="#linear-gradient"/>
    <linearGradient id="linear-gradient-21" x1="425.3" y1="196.69" x2="457.79" y2="196.69" xlink:href="#linear-gradient"/>
    <linearGradient id="linear-gradient-22" x1="227.55" y1="379.58" x2="311.5" y2="379.58" xlink:href="#linear-gradient"/>
    <linearGradient id="linear-gradient-23" x1="279.16" y1="298.84" x2="426.59" y2="298.84" xlink:href="#linear-gradient"/>
    <linearGradient id="linear-gradient-24" x1="487.96" y1="204.28" x2="543.12" y2="204.28" xlink:href="#linear-gradient"/>
    <linearGradient id="linear-gradient-25" x1="461.95" y1="254.26" x2="569.1" y2="254.26" xlink:href="#linear-gradient"/>
    <linearGradient id="linear-gradient-26" x1="399.85" y1="39.75" x2="412.69" y2="39.75" xlink:href="#linear-gradient"/>
    <linearGradient id="linear-gradient-27" x1="436.02" y1="43.48" x2="483.52" y2="43.48" xlink:href="#linear-gradient"/>
    <linearGradient id="linear-gradient-28" x1="436.02" y1="92.19" x2="471.84" y2="92.19" xlink:href="#linear-gradient"/>
    <linearGradient id="linear-gradient-29" x1="400.03" y1="122.74" x2="491.01" y2="122.74" xlink:href="#linear-gradient"/>
    <linearGradient id="linear-gradient-30" x1="849.95" y1="183.88" x2="862.37" y2="183.88" xlink:href="#linear-gradient"/>
    <linearGradient id="linear-gradient-31" x1="786.55" y1="183.95" x2="798.89" y2="183.95" xlink:href="#linear-gradient"/>
    <linearGradient id="linear-gradient-32" x1="885.71" y1="184.37" x2="898.37" y2="184.37" xlink:href="#linear-gradient"/>
    <linearGradient id="linear-gradient-33" x1="822.22" y1="184.62" x2="834.88" y2="184.62" xlink:href="#linear-gradient"/>
    <linearGradient id="linear-gradient-34" x1="821.89" y1="229.52" x2="862.37" y2="229.52" xlink:href="#linear-gradient"/>
    <linearGradient id="linear-gradient-35" x1="849.62" y1="279.9" x2="898.04" y2="279.9" xlink:href="#linear-gradient"/>
    <linearGradient id="linear-gradient-36" x1="786.22" y1="279.82" x2="834.64" y2="279.82" xlink:href="#linear-gradient"/>
  </defs>
  <g>
    <g>
      <path class="cls-1" d="M224,128.26c0,.25,0,.48,0,.69s0,.13,0,.18a6,6,0,0,1-.09.7.36.36,0,0,1,0,.1c0,.06,0,.11,0,.17a18.66,18.66,0,0,0,.16-2.69c0-1.67-.17-2.56-.5-2.67a37.65,37.65,0,0,1-3.92-.24,16.23,16.23,0,0,1-5.25-1.76l-.09,0c.17-.39.34-.79.53-1.21l5.5-12.61a1.34,1.34,0,0,1,.16-.23l.11-.15c.05-.06.11-.1.16-.15l.11-.1.2-.1a.93.93,0,0,1,.1,0,1.13,1.13,0,0,1,.32,0c3.88-.1,9.48-.18,16.82-.18,8.55,0,13.9.08,16,.18a1.44,1.44,0,0,1,.85.38,4.26,4.26,0,0,1,.32.3h0l5,12.11c.29.73.55,1.42.8,2.07-.18.09-.36.18-.56.26a19.43,19.43,0,0,1-7.5,1.58q-.66,0-.66,2.76a15.76,15.76,0,0,0,.08,1.66V140.5c0,1.81.23,2.94.68,3.4q24-1.32,25.15-1.34c2.9,0,7.52.23,13.92.68s9.79.66,10.24.66l0,0,0-.09s0,0,0-.05h0v0a2.28,2.28,0,0,0,.1-.38v-.08c0-.13,0-.27.05-.44a.28.28,0,0,0,0-.09c0-.14,0-.3,0-.46a1.27,1.27,0,0,0,0-.2c0-.15,0-.31,0-.48v-.21c0-.25,0-.5,0-.78V127.15c0,.27,0,.53,0,.77v.21c0,.17,0,.34,0,.49a1.15,1.15,0,0,1,0,.19c0,.17,0,.32,0,.47a.28.28,0,0,1,0,.09c0,.16,0,.31-.05.44a.17.17,0,0,0,0,.07,1.36,1.36,0,0,0,0,.17,21.5,21.5,0,0,0,.11-2.47c0-1.89-.23-2.84-.67-2.84a25.12,25.12,0,0,1-6.83-1.41c-3-1-4.84-2.31-5.5-4.09q-2.34-6-5.5-13.66l-34.17-84.5a4.64,4.64,0,0,0-4-2.16q-4.34,0-6.16,4.33l-36.83,84.66-.84,2c-.55,1.22-1.3,2.81-2.24,4.75a42.91,42.91,0,0,1-2.76,4.92c-.77,1.22-2.72,2.41-5.83,3.58a22.26,22.26,0,0,1-6.67,1.75c-.22,0-.33,1.17-.33,3.5a6.84,6.84,0,0,0,.1,1.18v11.82a3.66,3.66,0,0,0,.66,2.49c2.12-.1,5.12-.36,9-.76s7.22-.58,10-.58,6.36.21,10.75.58,7.31.66,8.75.76a4.79,4.79,0,0,0,.13-.54.29.29,0,0,0,0-.09.15.15,0,0,0,0-.07,5.4,5.4,0,0,0,.08-.63c0-.06,0-.12,0-.18,0-.22,0-.45,0-.7,0-.08,0-.17,0-.26,0-.32,0-.66,0-1V127c0,.37,0,.71,0,1C224.05,128.09,224,128.17,224,128.26Zm21.63-43.64c-2.33.08-4.82.13-7.52.13s-5.06,0-7.26-.15L238.57,67ZM238.5,53.77l-5.94,13.59,5.93-13.61Zm-12.92,29.6v.72a1.11,1.11,0,0,1-.09-.51Zm-14,33.38h0c0,.12-.06.25-.08.36s0,.13,0,.2l0,.2a5.25,5.25,0,0,0,0,.65v1.21a4.17,4.17,0,0,1-.09-.8A8.39,8.39,0,0,1,211.58,116.75Z"/>
      <path class="cls-1" d="M296.48,89.77q0,22.28,15.67,38.45t37.66,16.18a108.36,108.36,0,0,0,37.48-6.81,1.13,1.13,0,0,0,.21-.12l.08-.07.14-.13.09-.11L388,137a1.3,1.3,0,0,1,.1-.15l.12-.18v0c.09-.14.17-.29.26-.46l.06-.11.21-.46a1.6,1.6,0,0,0,.1-.23c.06-.13.12-.28.18-.43l.12-.28.18-.47.06-.16.06-.2.12-.33.15-.45.12-.37c.05-.15.1-.32.15-.48s.09-.27.13-.4.1-.35.16-.53l.12-.43c.05-.19.11-.39.17-.6l.12-.43c.06-.21.12-.44.18-.67s.07-.28.11-.43.14-.55.22-.83c0-.11,0-.22.08-.34.1-.4.21-.82.31-1.25l.38-1.56c0-.16.07-.3.1-.45.09-.37.17-.73.26-1.09l.09-.41c.11-.46.21-.91.31-1.33a1.16,1.16,0,0,1,0-.18c.08-.37.16-.73.23-1.07,0-.13.06-.25.08-.37.07-.3.13-.59.19-.88l.06-.26c.07-.36.14-.7.21-1l0-.19c.05-.26.1-.51.14-.75a2.38,2.38,0,0,0,.05-.26q.06-.35.12-.66s0-.09,0-.13v0c0-.24.08-.46.11-.67,0-.06,0-.11,0-.16l.06-.44a1.1,1.1,0,0,1,0-.18l0-.34s0-.1,0-.14,0-.27,0-.38h0V99.91c0,.11,0,.24,0,.38s0,.1,0,.15,0,.22,0,.34a1.1,1.1,0,0,0,0,.18c0,.14,0,.28-.06.44s0,.1,0,.15c0,.21-.07.44-.11.68a.77.77,0,0,1,0,.15c0,.2-.07.4-.11.62a18.67,18.67,0,0,0,.33-2.75c-.44-1.12-2.94-1.67-7.49-1.67a9.35,9.35,0,0,0-1.09,2.58c-.61,1.73-1.5,3.83-2.66,6.34a20.85,20.85,0,0,1-3.92,5.91,29.15,29.15,0,0,1-21.33,9q-16.83,0-26-14.25-7.62-11.84-8.9-28.22c0-.61.06-1.24.1-1.84,0-.17,0-.34,0-.51.09-1,.18-2.07.29-3.07,0-.21,0-.43.07-.64.13-1.08.28-2.13.45-3.16,0-.27.09-.54.13-.81.1-.55.2-1.1.31-1.65l.18-.86c.11-.55.24-1.09.37-1.62.06-.24.11-.49.17-.73.2-.75.4-1.48.61-2.19v0c.22-.72.45-1.42.7-2.1.1-.28.2-.54.3-.81s.25-.66.38-1,.23-.53.34-.79.27-.62.41-.92.25-.51.37-.76.29-.58.44-.86.27-.49.4-.73l.48-.81c.14-.23.28-.46.43-.68s.33-.52.5-.76.3-.44.46-.65.35-.48.53-.71l.49-.6q.28-.34.57-.66l.52-.57.59-.61.55-.52.63-.56.57-.48.67-.51.6-.44.7-.46.62-.4.74-.42.65-.35.77-.37.68-.31.81-.32.69-.27.86-.27c.24-.08.47-.16.71-.22s.6-.16.91-.23.47-.13.72-.18.64-.13,1-.18l.73-.14,1-.14.71-.08,1.19-.1.61,0c.62,0,1.24-.05,1.87-.05a42.63,42.63,0,0,1,14.76,2.42,27,27,0,0,1,10.32,6.23,36.12,36.12,0,0,1,5.67,7.13,27,27,0,0,1,2.75,6.31c1.67.33,2.55.5,2.67.5.34,0,.65,0,.95,0l.26,0,.61-.08.22,0c.25,0,.49-.11.7-.17l0,0a4.25,4.25,0,0,0,.52-.23l.15-.08.33-.24.11-.09a2.1,2.1,0,0,0,.31-.37v0s0,0,0,0a2.44,2.44,0,0,0,.14-.28l0-.12,0-.13a.42.42,0,0,0,0-.12,2.47,2.47,0,0,0,0-.39V48.47a2.24,2.24,0,0,1-.06.52l0,.12a1.78,1.78,0,0,1-.17.4l0,.06s0,0,0,0a2.15,2.15,0,0,0,.25-1q0-2.49-1.25-13.5t-2.09-11.16a162.6,162.6,0,0,0-38.16-4.84q-23.49,0-39.24,16.92T296.41,76.58c0,1,0,2,.07,3ZM333.33,35.4c.34-.33.68-.66,1-1l-.51.46C333.68,35.05,333.5,35.23,333.33,35.4Zm1.8-1.6.32-.25Zm1.35-1,.07,0Zm-3.17,2.61c-.2.2-.4.4-.59.61s-.35.37-.52.56l-.57.66c-.16.2-.33.4-.49.61s-.35.47-.53.71-.31.42-.46.64-.34.5-.5.76-.19.27-.28.42-.1.18-.15.27c-.16.26-.32.53-.47.81s-.28.48-.41.72-.29.57-.44.86-.25.51-.37.77-.27.6-.41.91-.23.53-.34.8-.25.65-.38,1-.17.41-.24.62l-.06.18c-.25.69-.48,1.38-.7,2.1v0c-.21.72-.41,1.45-.61,2.2-.06.24-.11.48-.17.73-.13.53-.26,1.07-.37,1.62l-.18.86c-.11.54-.21,1.09-.31,1.65,0,.19-.07.36-.1.55l0,.25c-.17,1-.32,2.09-.45,3.17,0,.21,0,.42-.07.64-.11,1-.2,2-.29,3.06,0,.17,0,.34,0,.52-.08,1.15-.14,2.34-.19,3.55l0,.83c0,1.25-.06,2.51-.06,3.82v4c-.05-1.24-.09-2.49-.09-3.77Q322.4,46.08,333.31,35.41Z"/>
      <path class="cls-1" d="M222.29,223a.69.69,0,0,1,0,.13c0-.46.07-.93.07-1.41,0-2.76-.43-4.67-1.27-5.73q-12.12,0-25-10.35a101.7,101.7,0,0,1-20.86-22.14q-4.14-6-11-15.44t-11.78-17.2q-3.15-5-7.13-11.55,12.22-5.41,23-19.16c.61-.79,1.2-1.59,1.76-2.39l.5-.73c.41-.59.8-1.19,1.18-1.79.1-.15.21-.3.3-.46l.2-.33c.33-.55.65-1.1,1-1.66l.4-.71c.44-.8.85-1.6,1.25-2.41,0-.09.08-.19.13-.28q.51-1.08,1-2.19c.12-.28.23-.56.34-.83.23-.57.45-1.13.66-1.7.06-.14.12-.28.17-.42l.2-.6c.16-.45.31-.91.46-1.37s.23-.72.33-1.08.28-.93.4-1.4.2-.72.29-1.09.23-1,.34-1.45.17-.72.24-1.08.19-1,.29-1.52c0-.27.1-.53.15-.8l0-.26c.08-.49.15-1,.21-1.48s.11-.73.15-1.1.11-1,.16-1.57c0-.35.07-.7.1-1.05.05-.59.08-1.18.11-1.78,0-.29,0-.58,0-.88,0-.89.05-1.8.05-2.71V69.58h0c0,.91,0,1.81-.05,2.71,0,.29,0,.58,0,.88,0,.59-.06,1.19-.11,1.78,0,.35-.07.7-.1,1-.05.52-.1,1-.16,1.57s-.1.73-.15,1.1-.13,1-.21,1.47-.12.71-.18,1.07-.19,1-.29,1.52c-.07.36-.16.72-.24,1.08s-.22,1-.34,1.45-.19.73-.29,1.09-.18.65-.28,1a63.76,63.76,0,0,0,2.36-17.55q0-14.64-7.65-25.64a50,50,0,0,0-19.42-16.72A110.91,110.91,0,0,0,130,19a101.35,101.35,0,0,0-22.62-2.71q-9.56,0-22.77.16t-21.82.16Q45.25,16.59,16,15q-1,1-1,6.05c0,1.13,0,2.07.12,2.87V34.47c0,3.82.42,5.7,1.28,5.7,2.32,0,6.31,1.08,11.93,3.19s8.76,4,9.41,5.7a40,40,0,0,1,.83,4.29c.12.82.23,1.7.32,2.62q.45,4.17.62,9.76c0,.11,0,.24,0,.35V180.94q0,20.7-1.91,28-.95,2.55-9.07,4.78T16.59,216c-.85,0-1.27,2.13-1.27,6.37a18.92,18.92,0,0,0,.12,2.26V235c0,2.76.43,4.55,1.26,5.4l46.52-1.91q3.27,0,9.26.19c1.57,0,3.28.1,5.12.17l3.16.12q12.15.48,31.16,1.43a5.21,5.21,0,0,0,.18-.63c0-.06,0-.13.05-.2s.07-.35.1-.54l0-.13s0-.06,0-.08c0-.26.08-.52.11-.81v0c0-.28.06-.57.08-.87a2.64,2.64,0,0,1,0-.28l0-.74c0-.1,0-.2,0-.3,0-.35,0-.7,0-1.08h0V221.22c0,.38,0,.74,0,1.09,0,.11,0,.21,0,.31l0,.73a2.83,2.83,0,0,0,0,.29c0,.3,0,.59-.08.86v0c0,.2-.05.38-.08.56.09-.89.14-1.92.14-3.08,0-4-.43-6.05-1.27-6.05q-4.78,0-14.34-2.23t-10.51-6.05q-2.24-9.87-2.23-26.12V138.26a10.44,10.44,0,0,1,.31-2.72.3.3,0,0,0,0,.1l0,.11-.06.56c0,.11,0,.22,0,.34,0,.34,0,.71,0,1.11h0v13.44c0-.4,0-.78,0-1.13,0-.12,0-.22,0-.33s0-.47.09-.68a1.16,1.16,0,0,1,0-.18,4.37,4.37,0,0,1,.17-.67.65.65,0,0,1,0-.13,1.6,1.6,0,0,1,.13-.3,2.56,2.56,0,0,1,.21-.44,2.18,2.18,0,0,1,.22-.31l.17-.22a2.09,2.09,0,0,1,.29-.23,1.39,1.39,0,0,1,.19-.15,2.54,2.54,0,0,1,.38-.16l.19-.07a2.69,2.69,0,0,1,.65-.08,11.91,11.91,0,0,1,3.5.33,12.9,12.9,0,0,1,4,3.17,68.53,68.53,0,0,1,5.9,7.61c2.32,3.39,4.49,6.61,6.54,9.67s4.71,7.27,8.09,12.54,6.16,9.63,8.3,13c4.24,6.56,7.64,11.51,10.19,14.9a117.54,117.54,0,0,0,11.63,12.69,61,61,0,0,0,15.59,11.41,100.45,100.45,0,0,0,20.71,6.83,125.18,125.18,0,0,0,28.5,3c2.79,0,5.28-.09,7.49-.26,1.32-.1,2.54-.22,3.66-.37.12-.28.23-.57.34-.86,0-.11.07-.23.11-.35s.12-.37.17-.57.16-.59.23-.89.09-.39.12-.58.05-.19.06-.29.06-.49.09-.74.05-.33.06-.49c.05-.52.08-1,.08-1.59V220.9c0,.54,0,1.06-.08,1.58C222.34,222.65,222.31,222.81,222.29,223ZM178.14,87.75c-.1.36-.22.72-.33,1.08,0,.07-.05.13-.07.2.16-.51.33-1,.48-1.54ZM140,129s0,.07,0,.1v1A1.8,1.8,0,0,1,140,129ZM84.11,67.55q.31-28.66,3.83-31.21l.06,0a2.23,2.23,0,0,0-.35.34l-.11.16a1.77,1.77,0,0,0-.16.22l-.09.17c-.05.09-.1.17-.14.26s-.15.32-.23.5l-.12.3-.06.14c-.06.17-.12.37-.18.56a2.13,2.13,0,0,0-.08.27c-.11.35-.21.73-.31,1.14a2.38,2.38,0,0,1,0,.26c-.08.34-.15.69-.22,1.07,0,.16-.07.34-.1.5s-.07.4-.11.62,0,.34-.07.5,0,.18-.05.28c-.07.5-.15,1-.21,1.6,0,.1,0,.21,0,.31-.07.59-.14,1.19-.2,1.83,0,0,0,.08,0,.13-.06.62-.12,1.27-.17,1.95l0,.3c-.05.69-.1,1.4-.15,2.14l0,.44c0,.75-.09,1.52-.13,2.32,0,.11,0,.23,0,.34,0,.79-.07,1.6-.11,2.44a2.09,2.09,0,0,1,0,.25c0,.87-.06,1.78-.09,2.7,0,.18,0,.36,0,.54,0,.92,0,1.86-.07,2.83,0,.17,0,.34,0,.52,0,1,0,2.06,0,3.14V80.8c0-1.08,0-2.12,0-3.14,0-.17,0-.35,0-.52,0-1,0-1.91.07-2.82,0-.19,0-.36,0-.54q0-1.4.09-2.7a2.26,2.26,0,0,0,0-.26c0-.83.07-1.65.11-2.44,0-.11,0-.22,0-.34,0-.8.08-1.57.13-2.32l0-.43c0-.74.1-1.46.15-2.14l0-.31c0-.67.11-1.32.17-2,0,0,0-.09,0-.13.06-.64.13-1.24.2-1.82a3.11,3.11,0,0,1,0-.32c.06-.56.14-1.09.21-1.6,0-.09,0-.18.05-.27.06-.39.12-.76.18-1.12,0-.17.06-.34.1-.51.07-.37.14-.73.22-1.07a2.21,2.21,0,0,0,0-.25c.1-.41.2-.79.31-1.14,0-.1,0-.18.08-.28s.16-.48.24-.69l.12-.31c.08-.17.15-.34.23-.49a2.15,2.15,0,0,1,.14-.26,2.38,2.38,0,0,1,.25-.39.64.64,0,0,1,.11-.16,2.05,2.05,0,0,1,.39-.39c2.34-1.68,7.21-2.53,14.65-2.53q12,0,19.18,7A24.36,24.36,0,0,1,124,56.43a29.29,29.29,0,0,1,3.47,5.6c.5,1,1,2.14,1.39,3.3q.31.87.6,1.77a57.1,57.1,0,0,1,2.17,10.09c.1.74.18,1.5.26,2.27s.13,1.37.18,2.06q-.9,14.15-6.66,23.3-6.85,10.83-19.27,10.82h-8.6a30.32,30.32,0,0,1-4.78-.31,12.63,12.63,0,0,1-4.14-1.6,7.73,7.73,0,0,1-3.34-4.14A21.37,21.37,0,0,1,84.11,102Z"/>
      <path class="cls-1" d="M457.75,171.77c0,.28,0,.55-.05.8s0,.23,0,.33a.31.31,0,0,1,0,.1c0-.67.08-1.4.08-2.24a12.65,12.65,0,0,0-1.28-5.74q-3.81.33-17.67,1.44T417,167.57q-12.75,0-42-2.55c-.61.82-.83,2.88-.66,6.16V182c0,.7,0,1.48.08,2.34.23,3.49.76,5.22,1.61,5.22q3.82,0,12.89,2.87t11.93,6.33q2.09,2.4,3.12,8.1a71.23,71.23,0,0,1,1,10.12v66.8q0,10.83-.64,13.06-14.66-19.42-39.49-49.69t-40.61-50.8Q308.37,175.86,303,165q-20.38,2.55-31.21,2.55-8.3,0-23.41-1.11T228.1,165q-1.28,1.28-.95,6.53l0,.38v10.46c0,.61,0,1.27.07,2,.2,3.49.73,5.22,1.58,5.22a95.12,95.12,0,0,1,14,1.59c6.39,1.08,10.09,2.33,11.15,3.82q2.69,3.39,3.87,10.09c.18,1,.33,2,.45,3.14s.23,2.26.3,3.47c0,.52.06,1.08.08,1.63V330q0,18.17-3.19,23.25a20.69,20.69,0,0,1-9.23,7.81,40.44,40.44,0,0,1-10.51,3.66,49.7,49.7,0,0,1-7.33.64c-.64,0-.95,2-.95,6.05,0,.91,0,1.71.08,2.42v9.61a15.84,15.84,0,0,0,.54,5,2.16,2.16,0,0,0,.42.73h0q5.75-.35,18.46-1.44c8.5-.75,15.51-1.1,21-1.1s13.57.4,24.19,1.26,16.87,1.28,18.79,1.28l.09-.23s0,0,0,0l.06-.21c0-.06,0-.11,0-.17s0-.18.06-.27l0-.17v0c0-.2.06-.41.09-.64,0-.06,0-.12,0-.19s0-.36.05-.56,0-.19,0-.28l0-.62a2.81,2.81,0,0,1,0-.29c0-.32,0-.64,0-1V371c0,.35,0,.69,0,1a2.81,2.81,0,0,0,0,.29l0,.62c0,.1,0,.19,0,.28s0,.33,0,.48c0-.92,0-2,0-3.26q-.17-5.42-1.12-5.41-4.77,0-15.28-3t-13.38-8.44q-2.55-5.08-2.55-22.61V209l.1.12v12.55L408.75,382.18c4,4.85,7.32,7.29,9.87,7.29a29,29,0,0,0,6.25-.5,3.74,3.74,0,0,0,1.72-.76V374.78a1.25,1.25,0,0,1-.12.08q-1.22-32-1.22-43.26v-121c0-3,.1-5.8.29-8.3,0,.27,0,.54-.05.82s0,.51,0,.77,0,.75-.05,1.13,0,.51,0,.77c0,.43,0,.87,0,1.31,0,.22,0,.44,0,.67,0,.66,0,1.32,0,2v13.51c0-.71,0-1.4,0-2.08,0-.22,0-.43,0-.65,0-.45,0-.9,0-1.33,0-.26,0-.5,0-.75s0-.78.05-1.15,0-.51,0-.76,0-.71.07-1.06l.06-.74c0-.33.05-.67.08-1s.05-.48.07-.71.07-.63.11-.95.05-.44.08-.65.09-.62.13-.92l.09-.59.12-.67c.05-.3.1-.6.16-.89s.09-.42.13-.63.12-.54.19-.8.1-.41.15-.61.13-.49.2-.73.11-.37.17-.56.14-.45.22-.67.1-.29.16-.43c.18-.49.37-1,.57-1.39h0a13.22,13.22,0,0,1,.64-1.19l.17-.27a10.9,10.9,0,0,1,.71-1q8.93-10.47,26.43-10.48a.81.81,0,0,0,.34-.08l0,0a1.05,1.05,0,0,0,.28-.24l.05-.07.09-.11s.05-.12.08-.17.08-.17.12-.27a.47.47,0,0,1,.05-.1l.09-.32a.84.84,0,0,0,0-.17,6.5,6.5,0,0,0,.15-.72v0c0-.05,0-.11,0-.16,0-.24.07-.5.09-.77l0-.33c0-.26,0-.53.05-.81,0-.11,0-.23,0-.35,0-.4,0-.82,0-1.28V170.14c0,.45,0,.87,0,1.28C457.76,171.54,457.76,171.65,457.75,171.77Z"/>
      <path class="cls-1" d="M569,222.77c0-.82,0-1.65,0-2.49q0-23.33-15.83-39.91T515.4,163.79q-22,0-37.75,16.58T461.9,220.28c0,.74,0,1.47.05,2.2v10.44q0,23.22,15.77,39.68T515.45,289q22,0,37.84-16.43c.7-.73,1.37-1.47,2-2.22l.63-.75c.43-.51.86-1,1.27-1.54l.69-.91c.36-.48.72-.95,1.06-1.44.24-.33.46-.65.68-1,.32-.48.64-1,1-1.44.1-.17.22-.33.33-.5s.21-.38.33-.56c.24-.42.49-.83.72-1.25s.43-.75.63-1.13.44-.85.66-1.27.38-.77.56-1.16.4-.87.59-1.3.35-.79.51-1.19.35-.88.52-1.33c.1-.25.21-.5.3-.75s.11-.33.16-.5c.13-.36.25-.73.37-1.1s.3-.91.43-1.37.22-.76.33-1.13l.36-1.4c.09-.39.19-.77.27-1.16s.21-.95.3-1.43.15-.77.22-1.17c0-.18.07-.36.1-.54s.09-.64.14-1,.11-.72.16-1.08c.06-.54.12-1.08.17-1.62,0-.34.08-.69.11-1,0-.6.09-1.21.12-1.82,0-.29,0-.58,0-.88,0-.91.06-1.82.06-2.75V219.49c0,.92,0,1.84-.06,2.75Zm-80.74-2c.09-1.19.2-2.34.33-3.48,0-.29.07-.58.11-.87.12-1,.26-2,.41-2.91,0-.17.05-.35.08-.52.09-.57.2-1.13.31-1.69l.15-.84c.17-.82.35-1.64.54-2.44s.39-1.5.61-2.24l.24-.72c.16-.48.31-1,.48-1.43.05-.15.11-.29.17-.43.19-.51.39-1,.6-1.51l.29-.65c.19-.42.39-.83.59-1.24.11-.22.22-.44.34-.65.21-.41.44-.81.67-1.21l.33-.56c.33-.54.67-1.08,1-1.59.06-.1.14-.19.2-.29.31-.44.63-.87,1-1.29.1-.14.21-.27.32-.41.41-.49.82-1,1.26-1.46A18.94,18.94,0,0,1,513,185.93a24.25,24.25,0,0,1,14.83,4.58,28.15,28.15,0,0,1,9.34,12.29,76.11,76.11,0,0,1,4.56,15.93q.72,4.11,1.08,8.44c.06.67.08,1.35.13,2q-.84,14.76-6.08,25.42-6.24,12.66-18.74,12.66a22.32,22.32,0,0,1-14.34-4.92,31.07,31.07,0,0,1-9.41-12.83,84.2,84.2,0,0,1-4.84-16.16,87.28,87.28,0,0,1-1.33-10.45c0-.61.05-1.22.1-1.81C488.25,221,488.26,220.88,488.27,220.77Zm.16-15.07c0-.17,0-.34.05-.52C488.46,205.36,488.44,205.53,488.43,205.7Zm-.18,2c-.08,1.1-.14,2.21-.19,3.35,0,.32,0,.64,0,1,0,1.26-.06,2.53-.06,3.83V219c0-.78-.06-1.55-.06-2.33C487.9,213.5,488,210.53,488.25,207.68Z"/>
      <path class="cls-1" d="M399.85,36.17c0,2,.23,3,.68,3a21.49,21.49,0,0,1,6.23,1.68c2.95,1.11,4.59,2.09,4.92,3a41.79,41.79,0,0,1,.95,8.68v53.92q0,10.83-1,14.67c-.34.89-1.92,1.72-4.76,2.5a26.89,26.89,0,0,1-6.24,1.16c-.45,0-.67,1.11-.67,3.34a9.55,9.55,0,0,0,.07,1.14v11.86a9.75,9.75,0,0,0,0,1,3.11,3.11,0,0,0,.61,1.84h0l24.34-1q11.5,0,30,.35c12.34.2,21.34.33,27,.33,0-.17.06-.36.1-.55s0-.25.07-.38.06-.31.1-.47.06-.3.1-.46l.12-.53c0-.17.09-.34.13-.52s.1-.4.16-.6l.15-.58c.06-.22.12-.45.19-.68s.11-.42.18-.64.14-.49.21-.75l.21-.7c.08-.26.16-.54.25-.82s.14-.49.22-.75.19-.6.28-.91.17-.53.26-.8l.3-1,.29-.89c.11-.33.22-.68.33-1s.21-.62.31-.95.24-.72.37-1.09l.34-1c.13-.38.26-.79.4-1.18s.23-.69.35-1,.31-.91.47-1.37.22-.66.34-1,.32-.91.48-1.37l.4-1.14c.15-.45.32-.91.48-1.37l.44-1.26c.21-.59.43-1.2.64-1.81.12-.31.22-.62.34-.94V101.59c0,.1-.07.19-.1.28-.7-.64-2.34-1-5-1-1.44,0-2.22.34-2.33,1a31.75,31.75,0,0,1-5.58,9.33,24.12,24.12,0,0,1-6.42,5.67A39.84,39.84,0,0,1,453,121.24h-4.34q-10.5,0-11.33-2.66Q436,114.74,436,106.75V81.08a.36.36,0,0,1,.06-.2V94.27a.53.53,0,0,1,0-.17l0,0a.44.44,0,0,1,.08-.11.46.46,0,0,1,.07-.07l.14-.1.09,0,.28-.13h0a3.31,3.31,0,0,1,.41-.13l.15,0,.34-.08.22,0,.36-.07.27,0,.4-.06.32,0,.43,0,.36,0,.49,0,.39,0,.54,0,.44,0,.58,0,.47,0,.65,0,.49,0,.74,0H448a59,59,0,0,1,11.37.75,5.78,5.78,0,0,1,1.62.58h0a2.45,2.45,0,0,0,.65.43,3.16,3.16,0,0,1,.68.4,9.85,9.85,0,0,1,.58.83,10.64,10.64,0,0,1,.76,1.51c.2.55.48,1.38.83,2.49s.71,2.43,1.16,4c.33.9,1.21,1.33,2.65,1.33a10.89,10.89,0,0,0,2.71-.26,1.8,1.8,0,0,0,.8-.39V91l0,0V59.75c-.56-.56-1.78-.83-3.67-.83-1.56,0-2.39.38-2.5,1.16a34.45,34.45,0,0,0-1,4.83c-.33,2.78-.78,4.39-1.33,4.84s-4.45.66-11.33.66h-8.84q-7.15,0-7.16-1V43.75a70.89,70.89,0,0,1,.83-13,1.23,1.23,0,0,1,.55-.78l-.07.06a.53.53,0,0,0-.13.13.39.39,0,0,0-.08.1l-.06.07a.25.25,0,0,0,0,.07.3.3,0,0,1,0,.08l0,.05a.84.84,0,0,0,0,.17h0c-.06.28-.11.59-.17.91,0,0,0,.06,0,.09s0,.26-.06.4-.07.49-.1.75l-.06.5c0,.26-.06.53-.08.8s0,.39-.05.58-.05.57-.07.87,0,.42,0,.64,0,.63,0,1l0,.68c0,.35,0,.72,0,1.09s0,.45,0,.69c0,.42,0,.86,0,1.3,0,.21,0,.41,0,.62,0,.66,0,1.35,0,2.06V57.08c0-.71,0-1.39,0-2.06,0-.21,0-.41,0-.62,0-.44,0-.88,0-1.3,0-.23,0-.46,0-.69s0-.73,0-1.08,0-.46,0-.69,0-.64,0-1,0-.44,0-.65.05-.58.07-.86,0-.39.05-.58.05-.54.08-.8l.06-.5c0-.27.07-.51.1-.76l.06-.4c.06-.35.12-.69.18-1a2,2,0,0,1,.07-.23.25.25,0,0,0,0-.07,1.3,1.3,0,0,1,.1-.15l.07-.1.14-.13.11-.09.18-.12.13-.08L438,43l.12,0,.46-.17.07,0,.46-.14.21,0a2.59,2.59,0,0,1,.4-.09l.26-.05.42-.08.31,0,.44-.06.35,0,.48,0,.38,0,.52,0,.41,0,.57,0,.43,0,.64,0h.43l.76,0H454c4.33,0,8.77,1.48,13.34,4.47a28,28,0,0,1,10,10.81c.32.75,1.11,1.15,2.34,1.15a12.57,12.57,0,0,0,2.45-.2c.2-.05.38-.1.55-.16a2.23,2.23,0,0,0,.84-.47h0V44.15l-.07.05q-4.67-23-4.83-24.62-9.5,0-28,.42t-25.83.42q-11.16,0-24.5-.84c-.33.34-.5,1.39-.5,3.17,0,.57,0,1.05.06,1.46Z"/>
      <path class="cls-1" d="M680.89,269.45q-6.33,0-13.08-5.42a53.19,53.19,0,0,1-10.92-11.58q-2.16-3.16-5.75-8.09t-6.16-9l-1-1.65a35,35,0,0,0,9.31-8.61c.48-.62.92-1.25,1.35-1.88l.32-.48.31-.47c.29-.47.56-.95.83-1.44,0-.07.07-.14.11-.22.34-.63.65-1.27.94-1.93,0-.1.1-.2.14-.3.23-.53.44-1.07.64-1.61.06-.16.11-.33.17-.5l.12-.36c.23-.7.44-1.42.62-2.14,0-.12.05-.24.08-.36.16-.68.31-1.37.42-2.08,0,0,0-.09,0-.13.09-.6.16-1.2.22-1.81,0-.31.08-.6.1-.91.07-.92.11-1.85.11-2.8h0V192.25c0,.87,0,1.73-.09,2.57,0-.62.07-1.23.07-1.87a22.93,22.93,0,0,0-4-13.41,26.14,26.14,0,0,0-10.17-8.75,58,58,0,0,0-12.33-4.42A53.1,53.1,0,0,0,621.4,165q-5,0-11.92.08c-4.61.06-8.42.08-11.42.08q-9.16,0-24.49-.83c-.34.33-.5,1.39-.5,3.17,0,.51,0,1,0,1.34v11.51c0,2,.23,3,.66,3A21.3,21.3,0,0,1,580,185c3,1.11,4.59,2.09,4.92,3a45.77,45.77,0,0,1,1,9.32v53.86q0,10.83-1,14.66c-.33.89-1.92,1.72-4.75,2.5a26.65,26.65,0,0,1-6.25,1.17c-.45,0-.67,1.11-.67,3.33,0,.26,0,.48,0,.7v11.73a4.12,4.12,0,0,0,.68,2.82l24.32-1q2.41,0,7.6.2l3.19.13,1.76.07,3.86.18,4.32.2,4.77.23h0a5.16,5.16,0,0,0,.13-.5l0-.13,0-.14.06-.47h0c0-.22,0-.46,0-.72a1.15,1.15,0,0,0,0-.19c0-.26,0-.54,0-.83V271.6c0,.3,0,.57,0,.83a1.15,1.15,0,0,1,0,.19h0c0-2.11-.22-3.16-.66-3.16a36.28,36.28,0,0,1-7.5-1.17c-3.34-.78-5.17-1.83-5.5-3.17a64,64,0,0,1-1.17-13.66V228.78a6.4,6.4,0,0,1,0-.64v13.25a5.53,5.53,0,0,1,0-.59,1,1,0,0,1,0-.18,3,3,0,0,1,0-.33,3.67,3.67,0,0,1,.14-.55,1,1,0,0,1,.07-.15,1.12,1.12,0,0,1,.1-.22,1.25,1.25,0,0,1,.12-.17l.09-.11A.61.61,0,0,1,610,239a.39.39,0,0,1,.1-.08.7.7,0,0,1,.2-.08l.1,0a1.34,1.34,0,0,1,.35,0,6.5,6.5,0,0,1,1.84.17,6.09,6.09,0,0,1,2.07,1.66,34.56,34.56,0,0,1,3.08,4c1.23,1.79,2.37,3.47,3.43,5.08s2.47,3.79,4.23,6.56,3.23,5,4.34,6.81c2.22,3.41,4,6,5.32,7.79a66.22,66.22,0,0,0,6.08,6.63,32,32,0,0,0,8.18,6A52.74,52.74,0,0,0,660.18,287a65.53,65.53,0,0,0,14.91,1.58l1.67,0c1.6-.05,3-.16,4.16-.31h0c.07-.16.13-.32.19-.48l.06-.17c0-.09.05-.18.08-.27s.09-.33.12-.5l.06-.26a.5.5,0,0,0,0-.12,3,3,0,0,0,0-.42c0-.09,0-.17,0-.26,0-.27,0-.55,0-.83h0V271.45c0,.22,0,.44,0,.65A4.6,4.6,0,0,0,680.89,269.45ZM638.44,224v.53A1.05,1.05,0,0,1,638.44,224Zm-29.21-32.18c0-2.89.11-5.39.24-7.52,0,.21,0,.41,0,.63l0,.63c0,.35,0,.72,0,1.09,0,.21,0,.43,0,.65,0,.4,0,.82,0,1.25,0,.2,0,.4,0,.6,0,.64,0,1.3,0,2v13.44c0-.68,0-1.33,0-2,0-.21,0-.41,0-.61l0-1.25c0-.22,0-.43,0-.65,0-.37,0-.73,0-1.09l0-.62c0-.35,0-.68.05-1s0-.37,0-.56c0-.34,0-.68.07-1,0-.14,0-.29,0-.42,0-.46.07-.89.11-1.3a.45.45,0,0,0,0-.11q.06-.56.12-1.05c0-.12,0-.23,0-.35s.07-.47.1-.68.06-.34.08-.5,0-.17,0-.25.08-.42.13-.62c0,0,0-.05,0-.07.05-.21.1-.41.15-.59a1.42,1.42,0,0,0,0-.16l.12-.35.07-.16c0-.1.08-.18.12-.26s.05-.09.07-.14l.13-.2.07-.09a1,1,0,0,1,.2-.2c1.21-.88,3.76-1.33,7.67-1.33q12.85,0,15,15.25a23.44,23.44,0,0,1-3.16,9.1A11.31,11.31,0,0,1,620.73,217h-4.5a15.86,15.86,0,0,1-2.5-.16,6.75,6.75,0,0,1-2.17-.84,4.09,4.09,0,0,1-1.75-2.16,11.28,11.28,0,0,1-.58-4Z"/>
      <path class="cls-1" d="M777,162.62a50.94,50.94,0,0,1-11.5,1.84q-7,0-18.33.5t-18.34.5q-7,0-18.24-.5t-18.25-.5a50.94,50.94,0,0,1-11.5-1.84l-3.09,26.53,0,0h0v.46l0,.22,0,0v12.73c.78.78,2.39,1.16,4.84,1.16a3.76,3.76,0,0,0,.61,0l.15,0a1.35,1.35,0,0,0,.32-.09l.14-.07a1.56,1.56,0,0,0,.2-.16.43.43,0,0,0,.09-.1l0-.05a.48.48,0,0,0,.08-.16.36.36,0,0,0,0-.11c.18-.7.37-1.37.58-2,.06-.22.14-.42.21-.63.14-.43.28-.86.43-1.27l.19-.48c.16-.41.32-.81.49-1.2.07-.17.14-.33.22-.5.18-.41.38-.8.58-1.19l.15-.3c.25-.47.51-.91.77-1.34l.23-.34c.2-.31.41-.61.62-.89l.3-.39c.21-.26.42-.51.64-.75l.28-.32c.32-.32.63-.63,1-.92,2.88-2.49,6.61-3.72,11.18-3.72a53,53,0,0,1,9.15.58,11.23,11.23,0,0,1,3.59,1,6,6,0,0,1,.9,1.43c.61,1.06,1,3.8,1.21,8.21.06,1.29.09,2.75.11,4.33v50.31a54.56,54.56,0,0,1-1.16,12.83q-.51,1.34-4.84,2.75a23.15,23.15,0,0,1-6.16,1.42c-.34,0-.5,1.16-.5,3.5,0,.17,0,.32,0,.48v11.93a5.39,5.39,0,0,0,.37,2.25,1.71,1.71,0,0,0,.28.42c1.57-.1,5.23-.35,11-.76s10.14-.57,13.14-.57,7.29.22,13.17.67q6.07.45,8.53.59c.74.05,1.23.07,1.48.07h0c0-.15.08-.32.12-.49l0-.14a.68.68,0,0,0,0-.14c0-.15.05-.31.07-.47h0l.06-.72a1.34,1.34,0,0,1,0-.2c0-.26,0-.54,0-.83V271.6c0,.3,0,.57,0,.84v0q0-3-.66-3a22,22,0,0,1-5.75-1.5q-4.25-1.5-4.58-2.67a55.53,55.53,0,0,1-1.34-13.5V191.62c0-1.72,0-3.33.09-4.81,0,.42,0,.86,0,1.3,0,.21,0,.42,0,.64,0,.7,0,1.42,0,2.17v13.46c0-.76,0-1.49,0-2.2,0-.21,0-.42,0-.62,0-.53,0-1,0-1.53,0-.19,0-.39,0-.58q0-1,.09-1.89s0-.06,0-.09q.06-.85.12-1.65c0-.17,0-.33.05-.49,0-.41.08-.8.13-1.18,0-.15,0-.3,0-.44.06-.49.13-1,.2-1.42s.12-.64.19-1c0-.15.05-.32.09-.47.09-.45.2-.87.31-1.26a1.15,1.15,0,0,1,.11-.29.34.34,0,0,1,.06-.12,1.13,1.13,0,0,1,.13-.2.63.63,0,0,1,.11-.13.81.81,0,0,1,.19-.18.74.74,0,0,1,.13-.12l.27-.19.15-.09.44-.23.08,0c.19-.09.39-.16.61-.24l.21-.06.49-.15.3-.08.5-.11.36-.08.52-.09.42-.07.56-.08.46-.06.62-.07.5-.05.67-.06.53,0,.74,0,.56,0,.83,0,.56,0,1,0h2.08q13.7,0,17.83,16.44c.13.55.68.83,1.67.83a9.92,9.92,0,0,0,4.1-.66,2.82,2.82,0,0,0,.74-.5h0V189.29l-.08.06Z"/>
      <path class="cls-2" d="M897.87,164.62q-20,1-22.5,1-1.83,0-24.83-1A3.8,3.8,0,0,0,850,167v13.15c0,.22,0,.46,0,.71.06,1.81.31,2.74.74,2.74a20.39,20.39,0,0,1,5.92,1.49c2.73,1,4.24,1.93,4.59,2.84.2.74.37,1.57.52,2.48a69.48,69.48,0,0,1,.64,10v12a1,1,0,0,1-.33.67q-15,.33-19.5.33-3.67,0-20-.33l-.33-.5V189c0-1,0-1.91,0-2.8,0,.68,0,1.37,0,2.11v13.45c0-.78,0-1.53,0-2.26,0-.2,0-.39,0-.58,0-.61,0-1.2,0-1.76,0-.11,0-.23,0-.34,0-.65.06-1.26.09-1.85l0-.44c0-.47.07-.91.11-1.34l0-.38c.05-.52.1-1,.16-1.46a2.34,2.34,0,0,0,0-.26q.09-.6.18-1.14a.9.9,0,0,0,0-.16c.08-.38.16-.73.24-1.06,0-.06,0-.12,0-.17a7.66,7.66,0,0,1,.3-.92,1.2,1.2,0,0,1,.13-.21.69.69,0,0,1,.11-.13.81.81,0,0,1,.16-.16l.15-.14.23-.16.2-.14.3-.17.24-.14.37-.18.29-.14.45-.19.31-.13.58-.22.3-.11c.32-.11.64-.23,1-.34a24.79,24.79,0,0,1,5.83-1.41.34.34,0,0,0,.17-.05l0,0a.52.52,0,0,0,.1-.11l0,0a.2.2,0,0,1,0-.08l0-.12,0,0s0,0,0-.07a2.05,2.05,0,0,0,.1-.41l0-.05v0c0-.19.05-.41.07-.65a1,1,0,0,1,0-.17c0-.26,0-.53,0-.83h0V167.52c0,.15,0,.26,0,.38a7.38,7.38,0,0,0-.5-3.28q-20,1-24.33,1l-23.16-1c-.23.22-.34,1.17-.34,2.84,0,.25,0,.48,0,.71v12.14c0,2.21.23,3.31.68,3.31a19.44,19.44,0,0,1,5.83,1.33c2.55.88,4.11,1.94,4.67,3.15a8,8,0,0,1,.39,1.31c.08.35.16.74.22,1.17a43.35,43.35,0,0,1,.43,4.85c.06,1.14.09,2.41.11,3.78V252q0,9-1.17,13.5c-.33.89-2,1.78-4.83,2.66a24.56,24.56,0,0,1-6.34,1.34q-.33,0-.33,3.33c0,.13,0,.24,0,.36v12.07a9.55,9.55,0,0,0,0,1,3.11,3.11,0,0,0,.61,1.84h0c1.66-.1,5.25-.35,10.75-.76s9.71-.57,12.58-.57,7.47.22,13.75.67l6.59.45,1.28.08,1,.06c.73.05,1.19.07,1.36.07h0l.09-.23a2.58,2.58,0,0,0,.08-.26l0-.11c0-.16.08-.33.11-.51a.17.17,0,0,0,0-.07c0-.17,0-.36.06-.55l0-.28c0-.3,0-.62,0-1V271.62c0,.16,0,.3,0,.45,0,0,0-.08,0-.12,0-1.67-.3-2.5-.75-2.5a21.83,21.83,0,0,1-5.74-1.5q-4.26-1.5-4.59-2.67a58.27,58.27,0,0,1-1.33-14V236.16h.1l.21,0,.23,0,.29,0h.3l.37,0,.38,0,.44,0H825l.52,0h.55l.57,0h.65l.65,0h.71l.76,0h.75l.91,0h2.61l1,0h3.13l1.78,0h.49l2.48,0q3.11,0,14,.22l5.46.1h0l.32.68V252q0,9.33-1,13.16-.5,1.33-4.83,2.84a22.28,22.28,0,0,1-6.17,1.5c-.44,0-.68.89-.74,2.67,0-.07,0-.14,0-.21h0v.44q0,.45,0,.84v12.15a9.46,9.46,0,0,0,0,1,2.77,2.77,0,0,0,.56,1.73l11.25-.76c6-.37,10.56-.57,13.57-.57s7.11.22,12.66.67c4.16.33,7,.53,8.65.62l1.19,0h0c.08-.27.16-.53.22-.78l.06-.25c0-.17.07-.34.1-.5s0-.05,0-.07v-.09a7.3,7.3,0,0,0,.1-1.13V271.78a1.23,1.23,0,0,1,0,.19c0-1.79-.26-2.69-.65-2.69a24,24,0,0,1-5.75-1.33q-4.25-1.33-4.58-2.5a59.18,59.18,0,0,1-1.34-14.17V189c0-.13,0-.26,0-.39v13.15c0-.68,0-1.34,0-2,0-.2,0-.38,0-.57,0-.48,0-.95,0-1.4,0-.18,0-.36,0-.53,0-.6.05-1.19.09-1.76,0,0,0-.09,0-.13,0-.52.07-1,.12-1.52,0-.16,0-.32,0-.47,0-.4.08-.78.13-1.15,0-.14,0-.28,0-.41.06-.49.13-1,.2-1.4s.13-.67.19-1l.09-.48c.1-.46.21-.91.32-1.33a1.26,1.26,0,0,1,.13-.26,4.68,4.68,0,0,1,.25-.29l.13-.12.22-.17.19-.13.29-.17.24-.13.36-.19.27-.13.45-.19.3-.13.57-.21.29-.11,1-.33a24.15,24.15,0,0,1,5.83-1.41.42.42,0,0,0,.21-.06l.06-.05a.87.87,0,0,0,.12-.14l0,0,0-.09a1,1,0,0,0,.06-.14l0-.05c0-.05,0-.11,0-.17l0-.09c0-.11.05-.24.08-.38v0s0-.06,0-.09,0-.26,0-.4,0-.12,0-.18l0-.41a1.15,1.15,0,0,1,0-.19c0-.21,0-.43,0-.67V167c0,.15,0,.29,0,.43A9.67,9.67,0,0,0,897.87,164.62Zm-76,59v0h0Z"/>
      <g>
        <polygon class="cls-1" points="868.02 129.78 518.23 129.78 518.23 143.22 868.02 143.22 898.37 88.04 898.37 74.6 868.02 129.78"/>
        <path class="cls-3" d="M868,19.58l30.34,55.25L868,130.24H518.16L548.5,74.91,518.16,19.58H868m0-15H518.16A15,15,0,0,0,505,26.79L531.4,74.91,505,123a15,15,0,0,0,13.15,22.21H868a15,15,0,0,0,13.16-7.79L911.54,82a15,15,0,0,0,0-14.43L881.19,12.36A15,15,0,0,0,868,4.58Z"/>
        <polygon class="cls-1" points="548.54 74.68 518.23 19.57 518.23 33.01 548.54 88.11 548.54 74.68"/>
      </g>
    </g>
    <g>
      <polygon class="cls-4" points="548.54 74.68 518.23 19.57 518.23 33.01 548.54 88.11 548.54 74.68"/>
      <polygon class="cls-5" points="868.02 129.78 518.23 129.78 518.23 143.22 868.02 143.22 898.37 88.04 898.37 74.6 868.02 129.78"/>
      <path class="cls-6" d="M16.4,40.17c2.32,0,6.31,1.08,11.93,3.19s8.76,4,9.41,5.7a40,40,0,0,1,.83,4.29c.12.82.23,1.7.32,2.62q.45,4.17.62,9.76.12,3.72.12,8.09h0V60.38q0-17.44-1.89-24.75C37.09,34,34,32,28.33,29.93s-9.61-3.19-11.93-3.19c-.86,0-1.28-1.89-1.28-5.71V34.47C15.12,38.29,15.54,40.17,16.4,40.17Z"/>
      <path class="cls-7" d="M322.58,81.66c.05-1.22.11-2.4.19-3.56,0-.17,0-.34,0-.51.09-1,.18-2.07.29-3.07,0-.21,0-.43.07-.64.13-1.08.28-2.13.45-3.16,0-.27.09-.54.13-.81.1-.55.2-1.1.31-1.65l.18-.86c.11-.55.24-1.09.37-1.62.06-.24.11-.49.17-.73.2-.75.4-1.48.61-2.19v0c.22-.72.45-1.42.7-2.1.1-.28.2-.54.3-.81s.25-.66.38-1,.23-.53.34-.79.27-.62.41-.92.25-.51.37-.76.29-.58.44-.86.27-.49.4-.73l.48-.81c.14-.23.28-.46.43-.68s.33-.52.5-.76.3-.44.46-.65.35-.48.53-.71l.49-.6q.28-.34.57-.66l.52-.57.59-.61.55-.52.63-.56.57-.48.67-.51.6-.44.7-.46.62-.4.74-.42.65-.35.77-.37.68-.31.81-.32.69-.27.86-.27c.24-.08.47-.16.71-.22s.6-.16.91-.23.47-.13.72-.18.64-.13,1-.18l.73-.14,1-.14.71-.08,1.19-.1.61,0c.62,0,1.24-.05,1.87-.05a42.63,42.63,0,0,1,14.76,2.42,27,27,0,0,1,10.32,6.23,36.12,36.12,0,0,1,5.67,7.13,27,27,0,0,1,2.75,6.31c1.67.33,2.55.5,2.67.5.34,0,.65,0,.95,0l.26,0,.61-.08.22,0c.25,0,.49-.11.7-.17l0,0a4.25,4.25,0,0,0,.52-.23l.15-.08.33-.24.11-.09a2.1,2.1,0,0,0,.31-.37v0s0,0,0,0a2.44,2.44,0,0,0,.14-.28l0-.12,0-.13a.42.42,0,0,0,0-.12,2.47,2.47,0,0,0,0-.39V48.47a2.24,2.24,0,0,1-.06.52l0,.12a1.78,1.78,0,0,1-.17.4l0,.06a1.9,1.9,0,0,1-.32.38l-.11.09a2,2,0,0,1-.33.24l-.15.09a3.13,3.13,0,0,1-.52.22l0,0a4.48,4.48,0,0,1-.7.17l-.22,0-.61.08-.26,0c-.3,0-.61,0-.95,0-.12,0-1-.18-2.67-.5a26.78,26.78,0,0,0-2.75-6.31A36.44,36.44,0,0,0,377.38,37a27.27,27.27,0,0,0-10.32-6.23,42.63,42.63,0,0,0-14.76-2.41c-.63,0-1.25,0-1.87,0l-.61.05c-.4,0-.8.05-1.19.09l-.71.09c-.35,0-.7.08-1,.14l-.73.13-1,.18-.72.18-.91.23-.71.22L342,30l-.69.26c-.27.11-.55.21-.81.33l-.68.31-.77.37-.65.35c-.25.13-.49.27-.74.42s-.41.26-.62.39-.47.31-.7.47l-.6.43-.67.52q-.29.23-.57.48l-.63.56-.55.52c-.2.2-.4.4-.59.61s-.35.37-.52.56l-.57.66c-.16.2-.33.4-.49.61s-.35.47-.53.71-.31.42-.46.64-.34.5-.5.76-.19.27-.28.42-.1.18-.15.27c-.16.26-.32.53-.47.81s-.28.48-.41.72-.29.57-.44.86-.25.51-.37.77-.27.6-.41.91-.23.53-.34.8-.25.65-.38,1-.17.41-.24.62l-.06.18c-.25.69-.48,1.38-.7,2.1v0c-.21.72-.41,1.45-.61,2.2-.06.24-.11.48-.17.73-.13.53-.26,1.07-.37,1.62l-.18.86c-.11.54-.21,1.09-.31,1.65,0,.19-.07.36-.1.55l0,.25c-.17,1-.32,2.09-.45,3.17,0,.21,0,.42-.07.64-.11,1-.2,2-.29,3.06,0,.17,0,.34,0,.52-.08,1.15-.14,2.34-.19,3.55l0,.83c0,1.25-.06,2.51-.06,3.82V86.3c0-1.3,0-2.57.06-3.82Z"/>
      <path class="cls-8" d="M84.28,77.14c0-1,0-1.91.07-2.82,0-.19,0-.36,0-.54q0-1.4.09-2.7a2.26,2.26,0,0,0,0-.26c0-.83.07-1.65.11-2.44,0-.11,0-.22,0-.34,0-.8.08-1.57.13-2.32l0-.43c0-.74.1-1.46.15-2.14l0-.31c0-.67.11-1.32.17-2,0,0,0-.09,0-.13.06-.64.13-1.24.2-1.82a3.11,3.11,0,0,1,0-.32c.06-.56.14-1.09.21-1.6,0-.09,0-.18.05-.27.06-.39.12-.76.18-1.12,0-.17.06-.34.1-.51.07-.37.14-.73.22-1.07a2.21,2.21,0,0,0,0-.25c.1-.41.2-.79.31-1.14,0-.1,0-.18.08-.28s.16-.48.24-.69l.12-.31c.08-.17.15-.34.23-.49a2.15,2.15,0,0,1,.14-.26,2.38,2.38,0,0,1,.25-.39.64.64,0,0,1,.11-.16,2.05,2.05,0,0,1,.39-.39c2.34-1.68,7.21-2.53,14.65-2.53q12,0,19.18,7A24.36,24.36,0,0,1,124,56.43a29.29,29.29,0,0,1,3.47,5.6c.5,1,1,2.14,1.39,3.3q.31.87.6,1.77a57.1,57.1,0,0,1,2.17,10.09c.1.74.18,1.5.26,2.27.16,1.54.27,3.13.35,4.78,0,.82.07,1.66.08,2.51s0,1.72,0,2.59h0V75.91q0-42.18-29.61-42.19c-7.44,0-12.31.86-14.65,2.54a2.31,2.31,0,0,0-.39.38l-.11.16a1.77,1.77,0,0,0-.16.22l-.09.17c-.05.09-.1.17-.14.26s-.15.32-.23.5l-.12.3-.06.14c-.06.17-.12.37-.18.56a2.13,2.13,0,0,0-.08.27c-.11.35-.21.73-.31,1.14a2.38,2.38,0,0,1,0,.26c-.08.34-.15.69-.22,1.07,0,.16-.07.34-.1.5s-.07.4-.11.62,0,.34-.07.5,0,.18-.05.28c-.07.5-.15,1-.21,1.6,0,.1,0,.21,0,.31-.07.59-.14,1.19-.2,1.83,0,0,0,.08,0,.13-.06.62-.12,1.27-.17,1.95l0,.3c-.05.69-.1,1.4-.15,2.14l0,.44c0,.75-.09,1.52-.13,2.32,0,.11,0,.23,0,.34,0,.79-.07,1.6-.11,2.44a2.09,2.09,0,0,1,0,.25c0,.87-.06,1.78-.09,2.7,0,.18,0,.36,0,.54,0,.92,0,1.86-.07,2.83,0,.17,0,.34,0,.52,0,1,0,2.06,0,3.14V80.8c0-1.08,0-2.12,0-3.14C84.28,77.49,84.28,77.31,84.28,77.14Z"/>
      <path class="cls-9" d="M140.08,142a1.46,1.46,0,0,1,.25-.41l.06-.07a1.82,1.82,0,0,1,.42-.35l.11-.07a3.23,3.23,0,0,1,.62-.29q14.34-4.8,26.76-20.63c.61-.79,1.2-1.59,1.76-2.39l.5-.73c.41-.59.8-1.19,1.18-1.79.1-.15.21-.3.3-.46l.2-.33c.33-.55.65-1.1,1-1.66l.4-.71c.44-.8.85-1.6,1.25-2.41,0-.09.08-.19.13-.28q.51-1.08,1-2.19c.12-.28.23-.56.34-.83.23-.57.45-1.13.66-1.7.06-.14.12-.28.17-.42l.2-.6c.16-.45.31-.91.46-1.37s.23-.72.33-1.08.28-.93.4-1.4.2-.72.29-1.09.23-1,.34-1.45.17-.72.24-1.08.19-1,.29-1.52c0-.27.1-.53.15-.8l0-.26c.08-.49.15-1,.21-1.48s.11-.73.15-1.1.11-1,.16-1.57c0-.35.07-.7.1-1.05.05-.59.08-1.18.11-1.78,0-.29,0-.58,0-.88,0-.89.05-1.8.05-2.71V69.58h0c0,.91,0,1.81-.05,2.71,0,.29,0,.58,0,.88,0,.59-.06,1.19-.11,1.78,0,.35-.07.7-.1,1-.05.52-.1,1-.16,1.57s-.1.73-.15,1.1-.13,1-.21,1.47-.12.71-.18,1.07-.19,1-.29,1.52c-.07.36-.16.72-.24,1.08s-.22,1-.34,1.45-.19.73-.29,1.09-.26.93-.4,1.4-.22.72-.33,1.08-.3.91-.46,1.37-.24.68-.37,1c-.21.57-.43,1.14-.66,1.7-.11.28-.22.56-.34.84-.32.73-.65,1.46-1,2.18l-.13.28c-.4.82-.81,1.62-1.25,2.41l-.4.72c-.32.55-.64,1.11-1,1.65-.16.27-.33.53-.5.8-.38.6-.77,1.19-1.18,1.79l-.5.72c-.56.81-1.15,1.61-1.76,2.39q-12.42,15.87-26.76,20.63a5.16,5.16,0,0,0-.62.29.41.41,0,0,1-.11.07,2.51,2.51,0,0,0-.42.35l-.06.07a1.92,1.92,0,0,0-.13.17,1.15,1.15,0,0,0-.12.25s0,0,0,0h0a2.68,2.68,0,0,0-.07.27,2.45,2.45,0,0,0,0,.27v13.44a1.42,1.42,0,0,1,.1-.55A0,0,0,0,1,140.08,142Z"/>
      <path class="cls-10" d="M224,128.26c0,.25,0,.48,0,.69s0,.13,0,.18a6,6,0,0,1-.09.7.36.36,0,0,1,0,.1,4.58,4.58,0,0,1-.13.53q-2.16-.15-8.75-.75l-3.24-.26c0-.09,0-.19.07-.29a2.5,2.5,0,0,1,.07-.26c.1-.35.21-.72.34-1.11l.09-.28c.11-.31.22-.64.35-1l.16-.42c.11-.31.24-.62.36-1l.21-.5c.13-.34.28-.69.43-1l.21-.49c.23-.53.46-1.07.72-1.64l5.5-12.61a1.34,1.34,0,0,1,.16-.23l.11-.15c.05-.06.11-.1.16-.15l.11-.1.2-.1a.93.93,0,0,1,.1,0,1.13,1.13,0,0,1,.32,0c3.88-.1,9.48-.18,16.82-.18,8.55,0,13.9.08,16,.18a1.44,1.44,0,0,1,.85.38,4.26,4.26,0,0,1,.32.3h0l5,12.11q1.05,2.7,1.83,4.74c.26.68.49,1.31.71,1.88s.41,1.09.59,1.55.22.61.32.88l-10.61.58c-.45-.45-.68-1.58-.68-3.39V140.5c0,1.81.23,2.94.68,3.4q24-1.32,25.15-1.34c2.9,0,7.52.23,13.92.68s9.79.66,10.24.66l0,0,0-.09s0,0,0-.05h0v0a2.28,2.28,0,0,0,.1-.38v-.08c0-.13,0-.27.05-.44a.28.28,0,0,0,0-.09c0-.14,0-.3,0-.46a1.27,1.27,0,0,0,0-.2c0-.15,0-.31,0-.48v-.21c0-.25,0-.5,0-.78V127.15c0,.27,0,.53,0,.77v.21c0,.17,0,.34,0,.49a1.15,1.15,0,0,1,0,.19c0,.17,0,.32,0,.47a.28.28,0,0,1,0,.09c0,.16,0,.31-.05.44a.17.17,0,0,0,0,.07,2.28,2.28,0,0,1-.1.38v0a.14.14,0,0,1,0,.06l-.06.11q-.68,0-10.24-.65c-6.4-.45-11-.68-13.92-.68-.57,0-5.19.24-13.82.71V118.5c0-.2-1.39-3.92-4.17-11.11l-5-12.11a1.81,1.81,0,0,0-1.17-.68c-.77,0-2-.07-3.65-.09V83.32l-12-29.72-13,29.72v11.2l-4.16.08a.87.87,0,0,0-.32.06l-.1,0a.75.75,0,0,0-.2.1.5.5,0,0,0-.11.1,1.1,1.1,0,0,0-.16.15.83.83,0,0,0-.11.15l-.13.17,0,.05-5.5,12.62c-.26.57-.49,1.11-.72,1.64l-.21.49c-.15.35-.3.7-.43,1l-.21.51c-.13.32-.25.64-.36.94l-.16.43c0,.05,0,.11-.07.17l-.28.81-.09.27c-.13.39-.24.76-.34,1.11,0,.1,0,.18-.07.27-.07.25-.13.49-.18.71l-.06.32c0,.12-.06.25-.08.36s0,.13,0,.2l0,.2a5.25,5.25,0,0,0,0,.65v11.26q-4.2-.3-7.17-.3c-2.77,0-6.1.2-10,.58s-6.88.65-9,.75a2.87,2.87,0,0,1-.62-1.65c0-.26,0-.53,0-.84h0v13.44a3.66,3.66,0,0,0,.66,2.49c2.12-.1,5.12-.36,9-.76s7.22-.58,10-.58,6.36.21,10.75.58,7.31.66,8.75.76a4.79,4.79,0,0,0,.13-.54.29.29,0,0,0,0-.09.15.15,0,0,0,0-.07,5.4,5.4,0,0,0,.08-.63c0-.06,0-.12,0-.18,0-.22,0-.45,0-.7,0-.08,0-.17,0-.26,0-.32,0-.66,0-1V127c0,.37,0,.71,0,1C224.05,128.09,224,128.17,224,128.26ZM238.57,67l11.09,27.46q-4.16-.06-11.42-.06c-4.56,0-8.45,0-11.68.07Z"/>
      <path class="cls-11" d="M349.81,144.4a108.36,108.36,0,0,0,37.48-6.81,1.13,1.13,0,0,0,.21-.12l.08-.07.14-.13.09-.11L388,137a1.3,1.3,0,0,1,.1-.15l.12-.18v0c.09-.14.17-.29.26-.46l.06-.11.21-.46a1.6,1.6,0,0,0,.1-.23c.06-.13.12-.28.18-.43l.12-.28.18-.47.06-.16.06-.2.12-.33.15-.45.12-.37c.05-.15.1-.32.15-.48s.09-.27.13-.4.1-.35.16-.53l.12-.43c.05-.19.11-.39.17-.6l.12-.43c.06-.21.12-.44.18-.67s.07-.28.11-.43.14-.55.22-.83c0-.11,0-.22.08-.34.1-.4.21-.82.31-1.25l.38-1.56c0-.16.07-.3.1-.45.09-.37.17-.73.26-1.09l.09-.41c.11-.46.21-.91.31-1.33a1.16,1.16,0,0,1,0-.18c.08-.37.16-.73.23-1.07,0-.13.06-.25.08-.37.07-.3.13-.59.19-.88l.06-.26c.07-.36.14-.7.21-1l0-.19c.05-.26.1-.51.14-.75a2.38,2.38,0,0,0,.05-.26q.06-.35.12-.66s0-.09,0-.13v0c0-.24.08-.46.11-.67,0-.06,0-.11,0-.16l.06-.44a1.1,1.1,0,0,1,0-.18l0-.34s0-.1,0-.14,0-.27,0-.38h0V99.91c0,.11,0,.24,0,.38s0,.1,0,.15,0,.22,0,.34a1.1,1.1,0,0,0,0,.18c0,.14,0,.28-.06.44s0,.1,0,.15c0,.21-.07.44-.11.68a.77.77,0,0,1,0,.15c0,.21-.08.43-.12.67,0,.08,0,.17-.05.26s-.09.48-.14.74a1.42,1.42,0,0,1,0,.2c-.06.32-.13.66-.2,1l-.06.27c-.06.29-.12.58-.19.88,0,.12-.05.24-.08.36-.07.35-.15.71-.23,1.08a1,1,0,0,0,0,.17c-.1.43-.2.88-.31,1.34l-.09.41c-.09.35-.17.71-.26,1.08,0,.15-.07.3-.1.45-.12.51-.25,1-.38,1.56s-.21.85-.31,1.26c0,.11-.05.22-.08.33-.08.29-.15.57-.22.84l-.11.43-.18.67-.12.43c-.06.2-.12.4-.17.6l-.12.42c-.06.18-.11.36-.16.53s-.08.27-.13.4l-.15.49-.12.37-.15.44-.12.34-.12.35c-.06.17-.12.32-.18.48l-.12.28-.18.43a2.29,2.29,0,0,1-.1.23q-.1.24-.21.45l-.06.11c-.09.17-.17.33-.26.47l-.13.2a1.21,1.21,0,0,0-.1.14,1.27,1.27,0,0,1-.14.17l-.09.11-.15.13s0,0-.07.06a.57.57,0,0,1-.21.12A108.36,108.36,0,0,1,349.81,131q-22,0-37.66-16.18T296.48,76.34V89.77q0,22.28,15.67,38.45T349.81,144.4Z"/>
      <path class="cls-12" d="M112.53,222.62l0,.73a2.83,2.83,0,0,0,0,.29c0,.3,0,.59-.08.86v0c0,.28-.07.55-.11.8a1.43,1.43,0,0,1,0,.22c0,.19-.06.37-.1.54s0,.13-.05.2a5,5,0,0,1-.18.62h0l-4.67-.24-8.68-.42-4-.18Q71.08,225,63.22,225L16.7,226.93a5.89,5.89,0,0,1-1.18-3.52c0-.57-.08-1.19-.08-1.89h0V235c0,2.76.43,4.55,1.26,5.4h0l46.52-1.91q3.27,0,9.26.19c1.57,0,3.28.1,5.12.17l3.16.12q12.15.48,31.16,1.43h0a5.21,5.21,0,0,0,.18-.63c0-.06,0-.13.05-.2s.07-.35.1-.54l0-.13s0-.06,0-.08c0-.26.08-.52.11-.81v0c0-.28.06-.57.08-.87a2.64,2.64,0,0,1,0-.28l0-.74c0-.1,0-.2,0-.3,0-.35,0-.7,0-1.08h0V221.22c0,.38,0,.74,0,1.09C112.54,222.42,112.53,222.52,112.53,222.62Z"/>
      <path class="cls-13" d="M222.29,223c0,.34-.08.69-.15,1s-.08.39-.12.59-.14.6-.23.89-.11.38-.17.57c-.14.41-.28.81-.45,1.2a83.64,83.64,0,0,1-11.15.63,125.2,125.2,0,0,1-28.5-3A99.8,99.8,0,0,1,160.81,218a60.71,60.71,0,0,1-15.59-11.41,115.67,115.67,0,0,1-11.63-12.69c-2.55-3.39-6-8.34-10.19-14.9-2.14-3.39-4.89-7.74-8.3-13s-6.1-9.48-8.09-12.54-4.22-6.28-6.54-9.68a69.5,69.5,0,0,0-5.9-7.61,13.06,13.06,0,0,0-4-3.17,12.38,12.38,0,0,0-3.5-.32,2.69,2.69,0,0,0-.65.08,1.07,1.07,0,0,0-.19.07,1.8,1.8,0,0,0-.38.16c-.07,0-.13.1-.19.14a3.36,3.36,0,0,0-.29.24,1.28,1.28,0,0,0-.17.22,1.43,1.43,0,0,0-.19.24s0,.05,0,.07a2.86,2.86,0,0,0-.21.43,1.75,1.75,0,0,0-.11.24.14.14,0,0,0,0,.06s0,.1-.05.14a5.32,5.32,0,0,0-.16.66,1.06,1.06,0,0,0,0,.19l0,.11-.06.56c0,.11,0,.22,0,.34,0,.34,0,.71,0,1.11h0v13.44c0-.4,0-.78,0-1.13,0-.12,0-.22,0-.33s0-.47.09-.68a1.16,1.16,0,0,1,0-.18,4.37,4.37,0,0,1,.17-.67.65.65,0,0,1,0-.13,1.6,1.6,0,0,1,.13-.3,2.56,2.56,0,0,1,.21-.44,2.18,2.18,0,0,1,.22-.31l.17-.22a2.09,2.09,0,0,1,.29-.23,1.39,1.39,0,0,1,.19-.15,2.54,2.54,0,0,1,.38-.16l.19-.07a2.69,2.69,0,0,1,.65-.08,11.91,11.91,0,0,1,3.5.33,12.9,12.9,0,0,1,4,3.17,68.53,68.53,0,0,1,5.9,7.61c2.32,3.39,4.49,6.61,6.54,9.67s4.71,7.27,8.09,12.54,6.16,9.63,8.3,13c4.24,6.56,7.64,11.51,10.19,14.9a117.54,117.54,0,0,0,11.63,12.69,61,61,0,0,0,15.59,11.41,100.45,100.45,0,0,0,20.71,6.83,125.18,125.18,0,0,0,28.5,3c2.79,0,5.28-.09,7.49-.26,1.32-.1,2.54-.22,3.66-.37h0c.12-.28.23-.57.34-.86,0-.11.07-.23.11-.35s.12-.37.17-.57.16-.59.23-.89.09-.39.12-.58.05-.19.06-.29.06-.49.09-.74.05-.33.06-.49c.05-.52.08-1,.08-1.59V220.9c0,.54,0,1.06-.08,1.58C222.34,222.65,222.31,222.81,222.29,223Z"/>
      <path class="cls-14" d="M573.77,183.3A21.3,21.3,0,0,1,580,185c3,1.11,4.59,2.09,4.92,3,.66,2.54,1,6.86,1,12.95V187.45c0-6.08-.35-10.4-1-12.94-.33-.9-2-1.88-4.92-3a21.09,21.09,0,0,0-6.25-1.66c-.33,0-.53-.56-.62-1.68,0-.38,0-.81,0-1.31h0v13.44C573.11,182.29,573.34,183.3,573.77,183.3Z"/>
      <path class="cls-15" d="M714.77,188.17a6,6,0,0,1,.9,1.43c.61,1.06,1,3.8,1.21,8.21q.14,3,.13,7.05h0V191.42c0-8.62-.45-13.72-1.34-15.25a5.83,5.83,0,0,0-.9-1.43,11,11,0,0,0-3.59-1,52,52,0,0,0-9.15-.58c-4.57,0-8.3,1.23-11.18,3.72-.33.28-.64.59-1,.92l-.28.31c-.22.25-.43.5-.64.76l-.3.38c-.21.29-.42.59-.62.9l-.23.34-.07.11c-.24.39-.47.8-.7,1.22l-.15.31c-.2.38-.4.78-.58,1.19-.08.16-.15.33-.22.5-.17.39-.33.79-.49,1.2-.06.16-.13.31-.19.47a1.8,1.8,0,0,1-.08.21c-.12.34-.24.71-.35,1.07s-.15.41-.21.62c-.21.66-.4,1.33-.58,2a1,1,0,0,1-.16.32l-.09.09a1.56,1.56,0,0,1-.2.16l-.14.07a2,2,0,0,1-.32.1l-.15,0a3.76,3.76,0,0,1-.61.05,16.6,16.6,0,0,1-2.4-.16,4.37,4.37,0,0,1-2.44-1h0v13.43c.78.78,2.39,1.16,4.84,1.16a3.76,3.76,0,0,0,.61,0l.15,0a1.35,1.35,0,0,0,.32-.09l.14-.07a1.56,1.56,0,0,0,.2-.16.43.43,0,0,0,.09-.1l0-.05a.48.48,0,0,0,.08-.16.36.36,0,0,0,0-.11c.18-.7.37-1.37.58-2,.06-.22.14-.42.21-.63.14-.43.28-.86.43-1.27l.19-.48c.16-.41.32-.81.49-1.2.07-.17.14-.33.22-.5.18-.41.38-.8.58-1.19l.15-.3c.25-.47.51-.91.77-1.34l.23-.34c.2-.31.41-.61.62-.89l.3-.39c.21-.26.42-.51.64-.75l.28-.32c.32-.32.63-.63,1-.92,2.88-2.49,6.61-3.72,11.18-3.72a53,53,0,0,1,9.15.58A11.23,11.23,0,0,1,714.77,188.17Z"/>
      <path class="cls-16" d="M773.66,189.61q-4.15-16.43-17.83-16.43h-2.08l-1,0-.56,0-.83,0c-.19,0-.37,0-.56,0l-.74,0-.53,0-.67.06-.5.05-.62.07-.46.05-.56.09-.42.06-.52.1-.37.07-.49.12-.3.07-.49.15a1.29,1.29,0,0,0-.21.07c-.22.07-.42.15-.61.23l-.08,0c-.15.07-.3.14-.44.22s-.09.07-.15.1l-.27.18-.13.12a1.66,1.66,0,0,0-.19.18.67.67,0,0,0-.11.14l-.1.12,0,.07a.34.34,0,0,0-.06.12l0,.1a.76.76,0,0,0-.06.2c-.11.39-.22.81-.31,1.26,0,.14-.06.31-.09.47-.07.31-.13.62-.19,1v0c-.07.44-.14.91-.2,1.4,0,.14,0,.29,0,.43-.05.38-.09.78-.13,1.19,0,.16,0,.32-.05.49,0,.53-.08,1.07-.12,1.64,0,0,0,.07,0,.1,0,.6-.07,1.24-.09,1.89,0,.19,0,.38,0,.58,0,.49,0,1,0,1.51,0,.21,0,.42,0,.64,0,.7,0,1.42,0,2.17v13.46c0-.76,0-1.49,0-2.2,0-.21,0-.42,0-.62,0-.53,0-1,0-1.53,0-.19,0-.39,0-.58q0-1,.09-1.89s0-.06,0-.09q.06-.85.12-1.65c0-.17,0-.33.05-.49,0-.41.08-.8.13-1.18,0-.15,0-.3,0-.44.06-.49.13-1,.2-1.42s.12-.64.19-1c0-.15.05-.32.09-.47.09-.45.2-.87.31-1.26a1.15,1.15,0,0,1,.11-.29.34.34,0,0,1,.06-.12,1.13,1.13,0,0,1,.13-.2.63.63,0,0,1,.11-.13.81.81,0,0,1,.19-.18.74.74,0,0,1,.13-.12l.27-.19.15-.09.44-.23.08,0c.19-.09.39-.16.61-.24l.21-.06.49-.15.3-.08.5-.11.36-.08.52-.09.42-.07.56-.08.46-.06.62-.07.5-.05.67-.06.53,0,.74,0,.56,0,.83,0,.56,0,1,0h2.08q13.7,0,17.83,16.44c.13.55.68.83,1.67.83a9.92,9.92,0,0,0,4.1-.66,2.82,2.82,0,0,0,.74-.5h0V189.29c-.78.75-2.4,1.15-4.84,1.15C774.34,190.44,773.79,190.16,773.66,189.61Z"/>
      <path class="cls-17" d="M609.34,200.7c0-.22,0-.43,0-.65,0-.37,0-.73,0-1.09l0-.62c0-.35,0-.68.05-1s0-.37,0-.56c0-.34,0-.68.07-1,0-.14,0-.29,0-.42,0-.46.07-.89.11-1.3a.45.45,0,0,0,0-.11q.06-.56.12-1.05c0-.12,0-.23,0-.35s.07-.47.1-.68.06-.34.08-.5,0-.17,0-.25.08-.42.13-.62c0,0,0-.05,0-.07.05-.21.1-.41.15-.59a1.42,1.42,0,0,0,0-.16l.12-.35.07-.16c0-.1.08-.18.12-.26s.05-.09.07-.14l.13-.2.07-.09a1,1,0,0,1,.2-.2c1.21-.88,3.76-1.33,7.67-1.33q15.48,0,15.49,22.09V195.59q0-22.08-15.49-22.08c-3.91,0-6.46.45-7.67,1.33a1,1,0,0,0-.2.2.5.5,0,0,1-.07.08l-.09.13,0,.08-.07.13-.12.26c0,.05,0,.11-.07.17l0,.08-.09.26a.75.75,0,0,1,0,.16c-.05.19-.1.38-.15.6a.64.64,0,0,0,0,.07c0,.19-.09.4-.13.62s0,.17,0,.25l-.06.34a.68.68,0,0,1,0,.15c0,.22-.07.45-.1.68s0,.24,0,.36c0,.33-.08.68-.11,1,0,0,0,.07,0,.12,0,.41-.08.84-.11,1.29l0,.42c0,.33-.05.66-.07,1,0,.18,0,.37,0,.56s0,.66-.05,1l0,.63c0,.35,0,.72,0,1.09,0,.21,0,.43,0,.65,0,.4,0,.82,0,1.25,0,.2,0,.4,0,.6,0,.64,0,1.3,0,2v13.44c0-.68,0-1.33,0-2,0-.21,0-.41,0-.61Z"/>
      <path class="cls-18" d="M638.6,236.37a.77.77,0,0,1,.18-.18l.09-.08a2.13,2.13,0,0,1,.4-.2q7.5-2.47,14-10.8c.48-.62.92-1.25,1.35-1.88l.32-.48.31-.47c.29-.47.56-.95.83-1.44,0-.07.07-.14.11-.22.34-.63.65-1.27.94-1.93,0-.1.1-.2.14-.3.23-.53.44-1.07.64-1.61.06-.16.11-.33.17-.5l.12-.36c.23-.7.44-1.42.62-2.14,0-.12.05-.24.08-.36.16-.68.31-1.37.42-2.08,0,0,0-.09,0-.13.09-.6.16-1.2.22-1.81,0-.31.08-.6.1-.91.07-.92.11-1.85.11-2.8h0V192.25c0,.95,0,1.89-.11,2.81,0,.3-.07.6-.1.9-.06.61-.13,1.22-.22,1.81-.12.75-.27,1.49-.44,2.22,0,.12,0,.23-.08.35-.18.73-.39,1.44-.62,2.15l-.12.36c-.25.71-.51,1.41-.81,2.1,0,.1-.09.21-.14.31-.29.65-.6,1.29-.94,1.93,0,.07-.07.15-.11.22-.36.65-.74,1.28-1.14,1.91l-.32.47c-.43.64-.87,1.27-1.35,1.88q-6.48,8.34-14,10.81a1.66,1.66,0,0,0-.4.2l-.09.07a1.53,1.53,0,0,0-.18.18l0,0-.06.11v0h0a.65.65,0,0,0,0,.13c0,.05,0,.09,0,.14v13.43a.87.87,0,0,1,0-.28h0A.86.86,0,0,1,638.6,236.37Z"/>
      <path class="cls-19" d="M624.06,272.63c0,.25,0,.5,0,.72h0c0,.23-.06.42-.09.61l0,.14a4.29,4.29,0,0,1-.13.49h0c-13.32-.65-21.82-1-25.5-1l-24.32,1h0a3,3,0,0,1-.64-1.83c0-.3,0-.62,0-1h0v13.43a4.12,4.12,0,0,0,.68,2.82l24.32-1q2.41,0,7.6.2l3.19.13,1.76.07,3.86.18,4.32.2,4.77.23h0a5.16,5.16,0,0,0,.13-.5l0-.13,0-.14.06-.47h0c0-.22,0-.46,0-.72a1.15,1.15,0,0,0,0-.19c0-.26,0-.54,0-.83V271.6c0,.3,0,.57,0,.83A1.27,1.27,0,0,1,624.06,272.63Z"/>
      <path class="cls-20" d="M752.65,272.63q0,.39-.06.72h0c0,.23-.06.43-.09.61l0,.14c0,.18-.08.35-.12.49-.78,0-4.11-.22-10-.65s-10.27-.68-13.17-.68-7.37.2-13.14.58l-11,.75a3,3,0,0,1-.61-1.75,8.47,8.47,0,0,1,0-.91h0v13.43a5.39,5.39,0,0,0,.37,2.25,1.71,1.71,0,0,0,.28.42h0c1.57-.1,5.23-.35,11-.76s10.14-.57,13.14-.57,7.29.22,13.17.67q6.07.45,8.53.59c.74.05,1.23.07,1.48.07h0c0-.15.08-.32.12-.49l0-.14a.68.68,0,0,0,0-.14c0-.15.05-.31.07-.47h0l.06-.72a1.34,1.34,0,0,1,0-.2c0-.26,0-.54,0-.83V271.6c0,.3,0,.57,0,.84A1.21,1.21,0,0,0,752.65,272.63Z"/>
      <path class="cls-21" d="M681.5,272.54c0,.19,0,.37-.07.55l-.06.26c0,.17-.08.34-.12.5s0,.18-.08.26-.16.44-.25.66h0a46.58,46.58,0,0,1-5.83.33,64.94,64.94,0,0,1-14.91-1.59,51.55,51.55,0,0,1-10.84-3.57,31.73,31.73,0,0,1-8.18-6,64.08,64.08,0,0,1-6.08-6.63c-1.31-1.76-3.1-4.37-5.32-7.79-1.11-1.78-2.54-4-4.34-6.81s-3.17-4.95-4.23-6.56-2.2-3.29-3.43-5.07a34.56,34.56,0,0,0-3.08-4,6,6,0,0,0-2.07-1.66,6.06,6.06,0,0,0-1.84-.18,2,2,0,0,0-.35,0l-.1,0-.2.08a.87.87,0,0,0-.1.08,1,1,0,0,0-.16.12l-.09.12a1.47,1.47,0,0,0-.1.13l0,0a1.6,1.6,0,0,0-.1.23s0,.08-.07.13v0a3.53,3.53,0,0,0-.14.54s0,0,0,0l0,.29a1.1,1.1,0,0,0,0,.18,5.72,5.72,0,0,0,0,.6v13.43a5.53,5.53,0,0,1,0-.59,1,1,0,0,1,0-.18,3,3,0,0,1,0-.33,3.67,3.67,0,0,1,.14-.55,1,1,0,0,1,.07-.15,1.12,1.12,0,0,1,.1-.22,1.25,1.25,0,0,1,.12-.17l.09-.11A.61.61,0,0,1,610,239a.39.39,0,0,1,.1-.08.7.7,0,0,1,.2-.08l.1,0a1.34,1.34,0,0,1,.35,0,6.5,6.5,0,0,1,1.84.17,6.09,6.09,0,0,1,2.07,1.66,34.56,34.56,0,0,1,3.08,4c1.23,1.79,2.37,3.47,3.43,5.08s2.47,3.79,4.23,6.56,3.23,5,4.34,6.81c2.22,3.41,4,6,5.32,7.79a66.22,66.22,0,0,0,6.08,6.63,32,32,0,0,0,8.18,6A52.74,52.74,0,0,0,660.18,287a65.53,65.53,0,0,0,14.91,1.58l1.67,0c1.6-.05,3-.16,4.16-.31h0c.07-.16.13-.32.19-.48l.06-.17c0-.09.05-.18.08-.27s.09-.33.12-.5l.06-.26a.5.5,0,0,0,0-.12,3,3,0,0,0,0-.42c0-.09,0-.17,0-.26,0-.27,0-.55,0-.83h0V271.45c0,.29,0,.56,0,.83C681.53,272.37,681.51,272.46,681.5,272.54Z"/>
      <path class="cls-22" d="M228.83,189.6a95.12,95.12,0,0,1,14,1.59c6.39,1.08,10.09,2.33,11.15,3.82q2.69,3.39,3.87,10.09c.18,1,.33,2,.45,3.14s.23,2.26.3,3.47c.12,1.81.17,3.75.17,5.81h0V204.09q0-16.49-4.79-22.52c-1.06-1.48-4.76-2.74-11.15-3.82a96.18,96.18,0,0,0-14-1.58c-.85,0-1.38-1.73-1.58-5.23,0-.36-.05-.7-.06-1s0-.65,0-.95h0v13.43c0,.61,0,1.27.07,2C227.45,187.87,228,189.6,228.83,189.6Z"/>
      <path class="cls-23" d="M388.85,179q-9.08-2.86-12.89-2.86c-.85,0-1.38-1.73-1.61-5.23-.05-.86-.08-1.64-.08-2.34V182c0,.7,0,1.48.08,2.34.23,3.49.76,5.22,1.61,5.22q3.82,0,12.89,2.87t11.93,6.33q2.09,2.4,3.12,8.1A84.25,84.25,0,0,1,405,221.64h0V208.21q0-18.06-4.17-22.84Q397.95,181.89,388.85,179Z"/>
      <path class="cls-24" d="M457.75,171.77c0,.28,0,.55-.05.8s0,.23,0,.33c0,.28-.05.53-.09.77,0,.06,0,.12,0,.17-.05.28-.1.54-.16.77a1.09,1.09,0,0,1,0,.17,4.13,4.13,0,0,1-.14.42c0,.1-.08.18-.12.26s-.11.21-.17.29l-.05.06a.94.94,0,0,1-.28.25l0,0a.69.69,0,0,1-.34.09q-17.52,0-26.43,10.48a8.68,8.68,0,0,0-.71,1,1.25,1.25,0,0,0-.09.12s-.05.1-.08.15a13.22,13.22,0,0,0-.64,1.19h0c-.2.43-.39.9-.57,1.39a1.22,1.22,0,0,0-.07.17c0,.09-.06.18-.09.27s-.15.44-.22.67-.12.37-.17.56-.14.48-.2.73-.11.4-.15.6-.13.53-.19.8-.09.42-.13.63-.11.59-.16.89l-.09.5,0,.17-.09.59c0,.31-.09.61-.13.92s0,.44-.08.67-.07.62-.11.94,0,.47-.07.71-.06.65-.08,1l-.06.75c0,.34-.05.69-.07,1.05s0,.51,0,.77,0,.75-.05,1.13,0,.51,0,.77c0,.43,0,.87,0,1.31,0,.22,0,.44,0,.67,0,.66,0,1.32,0,2v13.51c0-.71,0-1.4,0-2.08,0-.22,0-.43,0-.65,0-.45,0-.9,0-1.33,0-.26,0-.5,0-.75s0-.78.05-1.15,0-.51,0-.76,0-.71.07-1.06l.06-.74c0-.33.05-.67.08-1s.05-.48.07-.71.07-.63.11-.95.05-.44.08-.65.09-.62.13-.92l.09-.59.12-.67c.05-.3.1-.6.16-.89s.09-.42.13-.63.12-.54.19-.8.1-.41.15-.61.13-.49.2-.73.11-.37.17-.56.14-.45.22-.67.1-.29.16-.43c.18-.49.37-1,.57-1.39h0a13.22,13.22,0,0,1,.64-1.19l.17-.27a10.9,10.9,0,0,1,.71-1q8.93-10.47,26.43-10.48a.81.81,0,0,0,.34-.08l0,0a1.05,1.05,0,0,0,.28-.24l.05-.07.09-.11s.05-.12.08-.17.08-.17.12-.27a.47.47,0,0,1,.05-.1l.09-.32a.84.84,0,0,0,0-.17,6.5,6.5,0,0,0,.15-.72v0c0-.05,0-.11,0-.16,0-.24.07-.5.09-.77l0-.33c0-.26,0-.53.05-.81,0-.11,0-.23,0-.35,0-.4,0-.82,0-1.28V170.14c0,.45,0,.87,0,1.28C457.76,171.54,457.76,171.65,457.75,171.77Z"/>
      <path class="cls-25" d="M311.48,372.33l0,.62c0,.1,0,.19,0,.28s0,.39-.05.57,0,.13,0,.19c0,.23-.05.44-.09.63l0,.19-.06.28c0,.06,0,.11,0,.17l-.06.21c0,.09-.07.18-.11.26h0c-1.92,0-8.17-.45-18.79-1.28s-18.69-1.26-24.19-1.26-12.54.36-21,1.11l-5.92.5-5.05.4-4.05.31h-.25c-1.2.09-2.27.16-3.19.21-.63-.65-1-2.54-1-5.73v13.44a15.84,15.84,0,0,0,.54,5,2.16,2.16,0,0,0,.42.73h0q5.75-.35,18.46-1.44c8.5-.75,15.51-1.1,21-1.1s13.57.4,24.19,1.26,16.87,1.28,18.79,1.28l.09-.23s0,0,0,0l.06-.21c0-.06,0-.11,0-.17s0-.18.06-.27l0-.17v0c0-.2.06-.41.09-.64,0-.06,0-.12,0-.19s0-.36.05-.56,0-.19,0-.28l0-.62a2.81,2.81,0,0,1,0-.29c0-.32,0-.64,0-1V371c0,.35,0,.69,0,1A2.81,2.81,0,0,0,311.48,372.33Z"/>
      <path class="cls-26" d="M408.75,368.75,279.16,208.21v13.43L408.75,382.18c4,4.85,7.32,7.29,9.87,7.29a29,29,0,0,0,6.25-.5,3.74,3.74,0,0,0,1.72-.76V374.78c-.86.83-3.51,1.25-8,1.25C416.07,376,412.79,373.6,408.75,368.75Z"/>
      <path class="cls-27" d="M493.52,185.71c-.12.22-.23.44-.34.66-.2.4-.4.82-.59,1.23-.09.22-.19.43-.29.65-.21.5-.41,1-.6,1.51-.06.15-.12.29-.17.43l0,.09c-.16.44-.3.9-.45,1.35-.08.24-.16.47-.24.72-.22.73-.42,1.48-.61,2.24s-.37,1.61-.54,2.44l-.15.84c-.11.56-.22,1.12-.31,1.69l0,.14c0,.12,0,.26-.05.38-.15.95-.29,1.92-.41,2.9,0,.29-.07.58-.11.87-.13,1.14-.24,2.3-.33,3.49,0,.11,0,.22,0,.33-.08,1.09-.14,2.22-.19,3.36,0,.32,0,.64,0,1,0,1.26-.06,2.53-.06,3.83v13.43c0-1.3,0-2.57.06-3.82,0-.33,0-.65,0-1,.05-1.14.11-2.26.19-3.35,0-.11,0-.23,0-.34.09-1.19.2-2.34.33-3.48,0-.29.07-.58.11-.87.12-1,.26-2,.41-2.91,0-.17.05-.35.08-.52.09-.57.2-1.13.31-1.69l.15-.84c.17-.82.35-1.64.54-2.44s.39-1.5.61-2.24l.24-.72c.16-.48.31-1,.48-1.43.05-.15.11-.29.17-.43.19-.51.39-1,.6-1.51l.29-.65c.19-.42.39-.83.59-1.24.11-.22.22-.44.34-.65.21-.41.44-.81.67-1.21l.33-.56c.33-.54.67-1.08,1-1.59.06-.1.14-.19.2-.29.31-.44.63-.87,1-1.29.1-.14.21-.27.32-.41.41-.49.82-1,1.26-1.46A18.94,18.94,0,0,1,513,185.93a24.25,24.25,0,0,1,14.83,4.58,28.15,28.15,0,0,1,9.34,12.29,76.11,76.11,0,0,1,4.56,15.93q.72,4.11,1.08,8.44t.36,8.89h0V222.63a100.42,100.42,0,0,0-1.44-17.34,76.11,76.11,0,0,0-4.56-15.93,28.21,28.21,0,0,0-9.34-12.29A24.24,24.24,0,0,0,513,172.5a18.94,18.94,0,0,0-14.65,6.41c-.44.47-.85,1-1.26,1.46-.11.13-.22.27-.32.41-.34.42-.66.85-1,1.29-.06.09-.14.18-.2.28-.31.45-.62.91-.91,1.38l-.12.21-.33.57C494,184.9,493.73,185.3,493.52,185.71Z"/>
      <path class="cls-28" d="M569,223.13c0,.6-.07,1.21-.12,1.81,0,.35-.07.69-.11,1,0,.54-.11,1.08-.17,1.61-.05.37-.11.73-.16,1.09s-.15,1-.24,1.51-.14.78-.22,1.17-.19.95-.3,1.43-.18.77-.27,1.15l-.36,1.4c-.11.38-.21.76-.33,1.13s-.28.92-.43,1.37-.24.74-.37,1.11-.3.83-.46,1.24-.34.9-.52,1.34-.33.79-.51,1.18-.38.87-.59,1.3-.37.78-.56,1.16-.43.85-.66,1.27-.41.76-.63,1.14-.48.83-.72,1.24l-.66,1.07c-.31.48-.63,1-1,1.43s-.44.66-.68,1-.7,1-1.06,1.44l-.69.91c-.41.52-.84,1-1.27,1.54l-.63.74c-.66.75-1.33,1.49-2,2.23q-15.85,16.43-37.84,16.43t-37.73-16.43Q461.94,242.73,462,219.49v13.43q0,23.22,15.77,39.68T515.45,289q22,0,37.84-16.43c.7-.73,1.37-1.47,2-2.22l.63-.75c.43-.51.86-1,1.27-1.54l.69-.91c.36-.48.72-.95,1.06-1.44.24-.33.46-.65.68-1,.32-.48.64-1,1-1.44.1-.17.22-.33.33-.5s.21-.38.33-.56c.24-.42.49-.83.72-1.25s.43-.75.63-1.13.44-.85.66-1.27.38-.77.56-1.16.4-.87.59-1.3.35-.79.51-1.19.35-.88.52-1.33c.1-.25.21-.5.3-.75s.11-.33.16-.5c.13-.36.25-.73.37-1.1s.3-.91.43-1.37.22-.76.33-1.13l.36-1.4c.09-.39.19-.77.27-1.16s.21-.95.3-1.43.15-.77.22-1.17c0-.18.07-.36.1-.54s.09-.64.14-1,.11-.72.16-1.08c.06-.54.12-1.08.17-1.62,0-.34.08-.69.11-1,0-.6.09-1.21.12-1.82,0-.29,0-.58,0-.88,0-.91.06-1.82.06-2.75V219.49c0,.92,0,1.84-.06,2.75C569,222.53,569,222.83,569,223.13Z"/>
      <path class="cls-29" d="M399.85,36.17c0,2,.23,3,.68,3a21.49,21.49,0,0,1,6.23,1.68c2.95,1.11,4.59,2.09,4.92,3a42,42,0,0,1,.95,8.71q.06,1.95.06,4.23h0V43.32q0-9.12-1-12.94c-.33-.91-2-1.89-4.92-3a21.16,21.16,0,0,0-6.23-1.68c-.23,0-.4-.25-.51-.74a11.08,11.08,0,0,1-.17-2.23h0Z"/>
      <path class="cls-30" d="M436,54.4c0-.44,0-.88,0-1.3,0-.23,0-.46,0-.69s0-.73,0-1.08,0-.46,0-.69,0-.64,0-1,0-.44,0-.65.05-.58.07-.86,0-.39.05-.58.05-.54.08-.8l.06-.5c0-.27.07-.51.1-.76l.06-.4c.06-.35.12-.69.18-1a2,2,0,0,1,.07-.23.25.25,0,0,0,0-.07,1.3,1.3,0,0,1,.1-.15l.07-.1.14-.13.11-.09.18-.12.13-.08L438,43l.12,0,.46-.17.07,0,.46-.14.21,0a2.59,2.59,0,0,1,.4-.09l.26-.05.42-.08.31,0,.44-.06.35,0,.48,0,.38,0,.52,0,.41,0,.57,0,.43,0,.64,0h.43l.76,0H454c4.33,0,8.77,1.48,13.34,4.47a28,28,0,0,1,10,10.81c.32.75,1.11,1.15,2.34,1.15a12.57,12.57,0,0,0,2.45-.2c.2-.05.38-.1.55-.16a2.23,2.23,0,0,0,.84-.47h0V44.15c-.58.55-1.84.83-3.84.83-1.23,0-2-.4-2.34-1.16a27.92,27.92,0,0,0-10-10.8q-6.86-4.49-13.34-4.48h-7.94l-.76,0h-.43l-.64,0-.43,0-.57,0-.41,0-.52,0-.38,0-.48.05-.35,0-.44.06-.31,0-.41.07-.27.05-.4.09-.21.05c-.17,0-.32.09-.47.14h-.06l-.46.17-.12.06a2.1,2.1,0,0,0-.26.13.57.57,0,0,0-.13.08l-.18.12-.11.09a.53.53,0,0,0-.13.13.39.39,0,0,0-.08.1l-.06.07a.25.25,0,0,0,0,.07.3.3,0,0,1,0,.08l0,.05a.84.84,0,0,0,0,.17h0c-.06.28-.11.59-.17.91,0,0,0,.06,0,.09s0,.26-.06.4-.07.49-.1.75l-.06.5c0,.26-.06.53-.08.8s0,.39-.05.58-.05.57-.07.87,0,.42,0,.64,0,.63,0,1l0,.68c0,.35,0,.72,0,1.09s0,.45,0,.69c0,.42,0,.86,0,1.3,0,.21,0,.41,0,.62,0,.66,0,1.35,0,2.06V57.08c0-.71,0-1.39,0-2.06C436,54.81,436,54.61,436,54.4Z"/>
      <path class="cls-31" d="M436.08,94.08a.44.44,0,0,1,.08-.11.46.46,0,0,1,.07-.07l.14-.1.09,0,.28-.13h0a3.31,3.31,0,0,1,.41-.13l.15,0,.34-.08.22,0,.36-.07.27,0,.4-.06.32,0,.43,0,.36,0,.49,0,.39,0,.54,0,.44,0,.58,0,.47,0,.65,0,.49,0,.74,0H448a59,59,0,0,1,11.37.75,5.78,5.78,0,0,1,1.62.58h0a2.45,2.45,0,0,0,.65.43,3.16,3.16,0,0,1,.68.4,9.85,9.85,0,0,1,.58.83,10.64,10.64,0,0,1,.76,1.51c.2.55.48,1.38.83,2.49s.71,2.43,1.16,4c.33.9,1.21,1.33,2.65,1.33a10.89,10.89,0,0,0,2.71-.26,1.8,1.8,0,0,0,.8-.39V91c-.43.43-1.62.65-3.51.65-1.44,0-2.32-.42-2.65-1.33-.45-1.53-.83-2.86-1.16-4s-.63-1.93-.83-2.48a10.13,10.13,0,0,0-.76-1.51,8.34,8.34,0,0,0-.58-.83,3.16,3.16,0,0,0-.68-.4l-.41-.24a1,1,0,0,1-.24-.19c-1.44-.88-5.78-1.33-13-1.33h-3.21l-.74,0h-.49l-.65,0-.47,0-.58,0-.44,0-.53,0c-.14,0-.28,0-.41,0l-.48,0-.36,0-.43.05-.32,0-.39,0-.28,0-.36.06-.22,0-.34.09-.15,0-.41.13,0,0a1.46,1.46,0,0,0-.28.13.26.26,0,0,0-.09.05.71.71,0,0,0-.14.1l-.07.06-.07.08s0,0,0,0l0,0s0,0,0,0,0,0,0,.07a.13.13,0,0,0,0,.06h0V94.27a.53.53,0,0,1,0-.17Z"/>
      <path class="cls-32" d="M400.07,128.63c0-.3,0-.62,0-1h0v13.43a9.75,9.75,0,0,0,0,1,3.11,3.11,0,0,0,.61,1.84h0l24.34-1q11.5,0,30,.35c12.34.2,21.34.33,27,.33h0c0-.17.06-.36.1-.55s0-.25.07-.38.06-.31.1-.47.06-.3.1-.46l.12-.53c0-.17.09-.34.13-.52s.1-.4.16-.6l.15-.58c.06-.22.12-.45.19-.68s.11-.42.18-.64.14-.49.21-.75l.21-.7c.08-.26.16-.54.25-.82s.14-.49.22-.75.19-.6.28-.91.17-.53.26-.8l.3-1,.29-.89c.11-.33.22-.68.33-1s.21-.62.31-.95.24-.72.37-1.09l.34-1c.13-.38.26-.79.4-1.18s.23-.69.35-1,.31-.91.47-1.37.22-.66.34-1,.32-.91.48-1.37l.4-1.14c.15-.45.32-.91.48-1.37l.44-1.26c.21-.59.43-1.2.64-1.81.12-.31.22-.62.34-.94V101.59c-.34.94-.67,1.87-1,2.77l-.26.75c-.22.63-.45,1.26-.66,1.87-.12.35-.24.68-.35,1s-.35,1-.52,1.47l-.36,1.06-.45,1.31-.35,1c-.13.41-.27.82-.41,1.22l-.32,1-.38,1.14c-.11.32-.21.63-.31.94s-.22.69-.33,1-.19.6-.29.9l-.3.95c-.09.28-.17.54-.26.81s-.19.61-.28.9-.15.51-.22.76-.17.55-.25.82l-.21.7c-.07.25-.15.51-.21.75s-.12.42-.18.63-.13.46-.19.68l-.15.58c-.06.21-.11.41-.16.61s-.09.34-.13.51-.08.37-.12.54-.07.3-.1.45-.07.32-.1.47-.05.26-.07.39a2.38,2.38,0,0,0-.05.26c0,.1,0,.19-.05.29-5.65,0-14.65-.13-27-.33s-22.32-.35-30-.35l-24.34,1A3.1,3.1,0,0,1,400.07,128.63Z"/>
      <path class="cls-33" d="M850.7,183.62a20.39,20.39,0,0,1,5.92,1.49c2.73,1,4.24,1.93,4.59,2.84.2.74.37,1.57.52,2.48a71.16,71.16,0,0,1,.64,10.61h0V187.6c0-5.75-.37-10.12-1.16-13.09-.35-.9-1.86-1.83-4.59-2.84a20.28,20.28,0,0,0-5.92-1.48c-.43,0-.68-.93-.74-2.74,0-.25,0-.49,0-.72v13.44c0,.22,0,.46,0,.71C850,182.69,850.27,183.62,850.7,183.62Z"/>
      <path class="cls-34" d="M787.23,183.62a19.44,19.44,0,0,1,5.83,1.33c2.55.88,4.11,1.94,4.67,3.15a8,8,0,0,1,.39,1.31c.08.35.16.74.22,1.17a43.35,43.35,0,0,1,.43,4.85q.12,2.44.12,5.61V187.6q0-10.09-1.16-12.94c-.56-1.2-2.12-2.26-4.67-3.14a19.44,19.44,0,0,0-5.83-1.33c-.22,0-.39-.28-.51-.83a13.68,13.68,0,0,1-.17-2.49h0v13.44C786.55,182.52,786.78,183.62,787.23,183.62Z"/>
      <path class="cls-35" d="M898.35,167.88l0,.42c0,.06,0,.12,0,.17s0,.28,0,.41,0,.06,0,.09,0,.28-.08.4l0,.09a1.43,1.43,0,0,1-.08.22l-.06.14a.75.75,0,0,1-.07.12l-.12.13-.06.05a.44.44,0,0,1-.21.07,24.15,24.15,0,0,0-5.83,1.41l-1,.33-.28.1-.58.22-.3.12-.45.2-.27.13-.37.18-.23.13-.29.18-.18.12a2.31,2.31,0,0,0-.23.18l-.13.12a.86.86,0,0,0-.16.18l-.09.1s0,0,0,0a1,1,0,0,0-.09.17.14.14,0,0,1,0,.07c-.11.42-.22.86-.32,1.33l-.09.47c-.06.32-.13.65-.19,1v0c-.07.44-.14.89-.2,1.36,0,.14,0,.28,0,.42-.05.37-.09.75-.13,1.14,0,.16,0,.32,0,.48,0,.49-.09,1-.12,1.51,0,0,0,.09,0,.14,0,.56-.07,1.15-.09,1.75,0,.18,0,.36,0,.53,0,.46,0,.93,0,1.4,0,.19,0,.38,0,.57,0,.65,0,1.31,0,2v13.43c0-.68,0-1.34,0-2,0-.2,0-.38,0-.57,0-.48,0-.95,0-1.4,0-.18,0-.36,0-.53,0-.6.05-1.19.09-1.76,0,0,0-.09,0-.13,0-.52.07-1,.12-1.52,0-.16,0-.32,0-.47,0-.4.08-.78.13-1.15,0-.14,0-.28,0-.41.06-.49.13-1,.2-1.4s.13-.67.19-1l.09-.48c.1-.46.21-.91.32-1.33a1.26,1.26,0,0,1,.13-.26,4.68,4.68,0,0,1,.25-.29l.13-.12.22-.17.19-.13.29-.17.24-.13.36-.19.27-.13.45-.19.3-.13.57-.21.29-.11,1-.33a24.15,24.15,0,0,1,5.83-1.41.42.42,0,0,0,.21-.06l.06-.05a.87.87,0,0,0,.12-.14l0,0,0-.09a1,1,0,0,0,.06-.14l0-.05c0-.05,0-.11,0-.17l0-.09c0-.11.05-.24.08-.38v0s0-.06,0-.09,0-.26,0-.4,0-.12,0-.18l0-.41a1.15,1.15,0,0,1,0-.19c0-.21,0-.43,0-.67V167c0,.24,0,.46,0,.67A1.28,1.28,0,0,0,898.35,167.88Z"/>
      <path class="cls-36" d="M822.25,198.87c0-.61,0-1.2,0-1.76,0-.11,0-.23,0-.34,0-.65.06-1.26.09-1.85l0-.44c0-.47.07-.91.11-1.34l0-.38c.05-.52.1-1,.16-1.46a2.34,2.34,0,0,0,0-.26q.09-.6.18-1.14a.9.9,0,0,0,0-.16c.08-.38.16-.73.24-1.06,0-.06,0-.12,0-.17a7.66,7.66,0,0,1,.3-.92,1.2,1.2,0,0,1,.13-.21.69.69,0,0,1,.11-.13.81.81,0,0,1,.16-.16l.15-.14.23-.16.2-.14.3-.17.24-.14.37-.18.29-.14.45-.19.31-.13.58-.22.3-.11c.32-.11.64-.23,1-.34a24.79,24.79,0,0,1,5.83-1.41.34.34,0,0,0,.17-.05l0,0a.52.52,0,0,0,.1-.11l0,0a.2.2,0,0,1,0-.08l0-.12,0,0s0,0,0-.07a2.05,2.05,0,0,0,.1-.41l0-.05v0c0-.19.05-.41.07-.65a1,1,0,0,1,0-.17c0-.26,0-.53,0-.83h0V167.52c0,.32,0,.59,0,.84a1.09,1.09,0,0,0,0,.18c0,.24,0,.46-.07.64a.64.64,0,0,1,0,.07,2.16,2.16,0,0,1-.1.42l0,.1a1.17,1.17,0,0,1,0,.11l-.06.1a.36.36,0,0,1-.1.11l0,0a.34.34,0,0,1-.17.05,24.79,24.79,0,0,0-5.83,1.41l-1,.33-.3.12-.58.21-.31.13-.45.2-.29.13-.37.19-.24.13-.3.18-.2.13-.23.17-.15.13-.16.16-.11.13a.47.47,0,0,0-.06.09.33.33,0,0,0-.07.13,1.22,1.22,0,0,0-.07.17c-.08.23-.16.48-.23.74,0,.06,0,.12,0,.18q-.12.48-.24,1.05a1,1,0,0,1,0,.17c0,.15-.05.3-.08.47s-.07.44-.1.66,0,.17,0,.27c-.06.45-.11.94-.16,1.45l0,.38c0,.43-.08.88-.11,1.35l0,.44c0,.59-.06,1.2-.09,1.84,0,.12,0,.24,0,.36,0,.56,0,1.14,0,1.74,0,.19,0,.39,0,.59,0,.72,0,1.46,0,2.24v13.45c0-.78,0-1.53,0-2.26C822.24,199.25,822.24,199.06,822.25,198.87Z"/>
      <path class="cls-37" d="M836.68,235.8h1.12l1.78,0h.49l2.48,0q3.11,0,14,.22l5.46.1h0l.32.68V223.31l-.32-.68c-10.45-.2-16.95-.33-19.5-.33l-2.48,0h-.49l-1.78,0h-1.12l-1,0h-2.87l-1,0h-1.67l-.75,0h-.76l-.71,0h-.65l-.65,0h-.57l-.55,0H825l-.46,0-.44,0h-.38l-.37,0-.3,0-.29,0-.23,0h-.21l-.15,0-.13,0-.07,0h-.07v13.43s0,0,.07,0l.07,0,.13,0,.15,0,.21,0,.23,0,.29,0h.3l.37,0,.38,0,.44,0H825l.52,0h.55l.57,0h.65l.65,0h.71l.76,0h.75l.91,0h2.61l1,0h2Z"/>
      <path class="cls-38" d="M897.92,273.07c0,.16-.06.33-.1.5l-.06.25c-.06.24-.14.5-.22.76h0q-1.51,0-9.84-.65c-5.55-.45-9.79-.68-12.66-.68s-7.52.2-13.57.58l-11.25.75a1.11,1.11,0,0,1-.26-.38,5.9,5.9,0,0,1-.34-2.3h0v13.43a9.46,9.46,0,0,0,0,1,2.77,2.77,0,0,0,.56,1.73h0l11.25-.76c6-.37,10.56-.57,13.57-.57s7.11.22,12.66.67c4.16.33,7,.53,8.65.62l1.19,0h0c.08-.27.16-.53.22-.78l.06-.25c0-.17.07-.34.1-.5s0-.05,0-.07v-.09a7.3,7.3,0,0,0,.1-1.13V271.78a7.28,7.28,0,0,1-.1,1.12A1,1,0,0,1,897.92,273.07Z"/>
      <path class="cls-39" d="M834.58,272.86c0,.19,0,.38-.06.56a5,5,0,0,1-.12.58l0,.1a2.8,2.8,0,0,1-.17.49c-.56,0-4-.22-10.24-.65s-10.85-.68-13.75-.68-7.06.2-12.58.58l-8.07.58-2.68.17a2.24,2.24,0,0,1-.49-1,7.78,7.78,0,0,1-.17-1.77h0v13.43a9.55,9.55,0,0,0,0,1,3.11,3.11,0,0,0,.61,1.84h0c1.66-.1,5.25-.35,10.75-.76s9.71-.57,12.58-.57,7.47.22,13.75.67l6.59.45,1.28.08,1,.06c.73.05,1.19.07,1.36.07h0l.09-.23a2.58,2.58,0,0,0,.08-.26l0-.11c0-.16.08-.33.11-.51a.17.17,0,0,0,0-.07c0-.17,0-.36.06-.55l0-.28c0-.3,0-.62,0-1V271.62q0,.51,0,1Z"/>
    </g>
    <g>
      <g>
        <path class="cls-40" d="M661.53,62.15a12.63,12.63,0,0,0-4.15-5.48,10.7,10.7,0,0,0-6.59-2,8.45,8.45,0,0,0-6.52,2.86,15.63,15.63,0,0,0-3.59,7,40.38,40.38,0,0,0-1,9.48,39.32,39.32,0,0,0,.7,7.44,37.69,37.69,0,0,0,2.15,7.18,13.84,13.84,0,0,0,4.19,5.71,9.94,9.94,0,0,0,6.37,2.18q5.55,0,8.33-5.63A31.13,31.13,0,0,0,664.2,77a45.78,45.78,0,0,0-.63-7.74A34,34,0,0,0,661.53,62.15Z"/>
        <path class="cls-41" d="M868,19.58H518.16L548.5,74.91l-30.34,55.33H868l30.34-55.41ZM623.77,62.63c-.44,0-.69-.12-.74-.37q-1.85-7.34-7.93-7.33t-6.29,1.33a26.11,26.11,0,0,0-.59,6.6V89.59a24.51,24.51,0,0,0,.59,6c.1.35.78.74,2,1.19a10,10,0,0,0,2.56.67c.2,0,.3.47.3,1.4a4.47,4.47,0,0,1-.15,1.34c-.35,0-1.83-.1-4.45-.3s-4.56-.3-5.85-.3-3.28.09-5.85.26l-4.89.34a1.79,1.79,0,0,1-.29-1.19c0-1,.07-1.55.22-1.55a10.88,10.88,0,0,0,2.74-.63c1.28-.42,2-.83,2.15-1.23a24.27,24.27,0,0,0,.52-5.7V63.08q0-5.78-.6-6.82a2.65,2.65,0,0,0-.4-.63,4.84,4.84,0,0,0-1.6-.44,24.22,24.22,0,0,0-4.07-.26,7.3,7.3,0,0,0-5,1.67,10.93,10.93,0,0,0-3,5.59c0,.25-.29.37-.74.37a3.1,3.1,0,0,1-2.14-.52L581.77,50a22.76,22.76,0,0,0,5.11.81c2.08,0,4.78.08,8.11.22s6,.23,8.11.23,4.79-.08,8.15-.23,6.08-.22,8.15-.22a22.68,22.68,0,0,0,5.11-.81l1.41,12.15A3.21,3.21,0,0,1,623.77,62.63ZM668.71,93.3a22.91,22.91,0,0,1-33.59,0,24.74,24.74,0,0,1-7-17.7,24.85,24.85,0,0,1,7-17.74,22.82,22.82,0,0,1,33.59,0,24.72,24.72,0,0,1,7,17.74A24.61,24.61,0,0,1,668.71,93.3Zm69.7-30.67c-.44,0-.69-.12-.74-.37-1.23-4.89-3.88-7.33-7.92-7.33s-6.1.44-6.3,1.33a26.11,26.11,0,0,0-.59,6.6V89.59a24.51,24.51,0,0,0,.59,6c.1.35.78.74,2,1.19a10,10,0,0,0,2.55.67c.2,0,.3.47.3,1.4a4.47,4.47,0,0,1-.15,1.34q-.51,0-4.44-.3t-5.85-.3q-2,0-5.86.26l-4.88.34a1.72,1.72,0,0,1-.3-1.19c0-1,.07-1.55.22-1.55a10.7,10.7,0,0,0,2.74-.63c1.29-.42,2-.83,2.15-1.23a23.74,23.74,0,0,0,.52-5.7V63.08q0-5.78-.59-6.82a3,3,0,0,0-.41-.63,4.74,4.74,0,0,0-1.59-.44,24.44,24.44,0,0,0-4.08-.26,7.33,7.33,0,0,0-5,1.67,10.93,10.93,0,0,0-3,5.59c0,.25-.3.37-.74.37A3.11,3.11,0,0,1,695,62L696.42,50a22.6,22.6,0,0,0,5.11.81c2.07,0,4.77.08,8.11.22s6,.23,8.11.23,4.79-.08,8.15-.23,6.07-.22,8.14-.22a22.6,22.6,0,0,0,5.11-.81l1.41,12.15A3.18,3.18,0,0,1,738.41,62.63Zm50.13,33q.15.51,2,1.11a10.47,10.47,0,0,0,2.55.59q.3,0,.3,1.56a4,4,0,0,1-.22,1.26c-.45,0-1.9-.1-4.37-.3s-4.35-.3-5.63-.3-3.34.09-6,.26l-5,.34a2.43,2.43,0,0,1-.26-1.52c0-.82.14-1.22.34-1.22a10.17,10.17,0,0,0,2.74-.67c1.28-.45,2-.86,2.15-1.26a26.79,26.79,0,0,0,.44-5.85V77.3l-.15-.3q-7-.15-8.66-.15-9.19.08-9.19.23l.15.15V89.37a26.17,26.17,0,0,0,.59,6.22c.1.35.78.74,2,1.19a10,10,0,0,0,2.55.67c.2,0,.31.37.34,1.11a4.12,4.12,0,0,1-.19,1.63c-.25,0-1.76-.1-4.55-.3s-4.83-.3-6.11-.3-3.15.09-5.6.26l-4.77.34a1.86,1.86,0,0,1-.3-1.26c0-1,0-1.48.15-1.48a10.75,10.75,0,0,0,2.81-.6c1.29-.39,2-.79,2.15-1.18a25.5,25.5,0,0,0,.52-6V61.37q0-4.51-.52-5.77a3.34,3.34,0,0,0-2.07-1.41,8.56,8.56,0,0,0-2.59-.59c-.2,0-.3-.5-.3-1.48a2.69,2.69,0,0,1,.15-1.26l10.29.44c1.29,0,4.89-.15,10.82-.44a3.44,3.44,0,0,1,.22,1.55c0,.79-.1,1.19-.3,1.19a10.7,10.7,0,0,0-2.59.63c-1.28.42-2,.8-2.15,1.14a21.52,21.52,0,0,0-.59,6.3V72.19l.15.22q7.26.15,8.89.15,2,0,8.66-.15a.43.43,0,0,0,.15-.3V61.37a24.69,24.69,0,0,0-.52-5.85c-.15-.39-.82-.81-2-1.26a9,9,0,0,0-2.63-.66c-.2,0-.31-.41-.34-1.22a2.39,2.39,0,0,1,.26-1.52c6.82.29,10.49.44,11,.44q1.11,0,10-.44a4.12,4.12,0,0,1,.22,1.33c0,.94-.12,1.41-.37,1.41a10.49,10.49,0,0,0-2.59.63c-1.29.42-2,.8-2.08,1.14a26.16,26.16,0,0,0-.59,6.3v27.7A26.62,26.62,0,0,0,788.54,95.67ZM833.85,100q-3.78,0-12-.15t-13.33-.15l-10.81.45a1.86,1.86,0,0,1-.3-1.26c0-1,.1-1.48.3-1.48a12.15,12.15,0,0,0,2.77-.52c1.26-.35,2-.72,2.11-1.11A30.54,30.54,0,0,0,803,89.3v-28a25.64,25.64,0,0,0-.45-5.78c-.14-.39-.87-.84-2.18-1.33a9.48,9.48,0,0,0-2.78-.74c-.2,0-.3-.45-.3-1.33a2.49,2.49,0,0,1,.23-1.41q5.93.38,10.88.37c2.18,0,6-.06,11.49-.19s9.62-.18,12.44-.18q.07.74,2.15,11a2.61,2.61,0,0,1-1.71.37c-.54,0-.89-.17-1-.52a12.4,12.4,0,0,0-4.45-4.81,10.71,10.71,0,0,0-5.92-2h-2.82c-3.11,0-4.71.32-4.81,1a31.41,31.41,0,0,0-.37,5.78v11.4q0,.45,3.18.45h3.93c3.06,0,4.74-.1,5-.3s.45-.91.6-2.14a16,16,0,0,1,.44-2.15c0-.35.42-.52,1.11-.52a2.43,2.43,0,0,1,1.63.37v14a2.55,2.55,0,0,1-1.55.29c-.64,0-1-.19-1.19-.59-.19-.69-.37-1.28-.52-1.78s-.27-.86-.37-1.11a4.06,4.06,0,0,0-.33-.66,1.81,1.81,0,0,0-.26-.37,1.11,1.11,0,0,0-.3-.19,1.7,1.7,0,0,1-.29-.18q-1-.6-5.78-.6c-3.55,0-5.33.23-5.33.67V89.45a17.09,17.09,0,0,0,.59,5.26c.25.78,1.93,1.18,5,1.18H821a17.63,17.63,0,0,0,8.3-1.93,10.63,10.63,0,0,0,2.85-2.51,14.21,14.21,0,0,0,2.48-4.15c0-.3.4-.45,1-.45a3.49,3.49,0,0,1,2.22.45Q834.22,97.52,833.85,100Z"/>
        <rect class="cls-41" x="573.37" y="39.57" width="275" height="73"/>
      </g>
      <path class="cls-42" d="M619.4,50.78c-2.07,0-4.79.08-8.15.22s-6.07.23-8.15.23-4.77-.08-8.11-.23-6-.22-8.11-.22a22.76,22.76,0,0,1-5.11-.81L580.37,62a3.1,3.1,0,0,0,2.14.52c.45,0,.7-.12.74-.37a10.93,10.93,0,0,1,3-5.59,7.3,7.3,0,0,1,5-1.67,24.22,24.22,0,0,1,4.07.26,4.84,4.84,0,0,1,1.6.44,2.65,2.65,0,0,1,.4.63q.6,1.05.6,6.82V89.89a24.27,24.27,0,0,1-.52,5.7c-.15.4-.87.81-2.15,1.23a10.88,10.88,0,0,1-2.74.63c-.15,0-.22.51-.22,1.55a1.79,1.79,0,0,0,.29,1.19l4.89-.34q3.86-.25,5.85-.26t5.85.3c2.62.2,4.1.3,4.45.3a4.47,4.47,0,0,0,.15-1.34c0-.93-.1-1.4-.3-1.4a10,10,0,0,1-2.56-.67c-1.25-.45-1.93-.84-2-1.19a24.51,24.51,0,0,1-.59-6V62.86a26.17,26.17,0,0,1,.59-6.6q.29-1.34,6.29-1.33T623,62.26c.05.25.3.37.74.37a3.15,3.15,0,0,0,2.15-.52L624.51,50A22.68,22.68,0,0,1,619.4,50.78Z"/>
      <path class="cls-42" d="M651.9,50.49a22.31,22.31,0,0,0-16.78,7.37,24.84,24.84,0,0,0-7,17.74,24.73,24.73,0,0,0,7,17.7,22.91,22.91,0,0,0,33.59,0,24.61,24.61,0,0,0,7-17.7,24.72,24.72,0,0,0-7-17.74A22.41,22.41,0,0,0,651.9,50.49Zm9.52,40.36q-2.77,5.64-8.33,5.63a9.94,9.94,0,0,1-6.37-2.18,13.84,13.84,0,0,1-4.19-5.71,37.69,37.69,0,0,1-2.15-7.18,39.32,39.32,0,0,1-.7-7.44,40.38,40.38,0,0,1,1-9.48,15.63,15.63,0,0,1,3.59-7,8.45,8.45,0,0,1,6.52-2.86,10.7,10.7,0,0,1,6.59,2,12.63,12.63,0,0,1,4.15,5.48,34,34,0,0,1,2,7.11A45.78,45.78,0,0,1,664.2,77,31.13,31.13,0,0,1,661.42,90.85Z"/>
      <path class="cls-42" d="M834.59,87.3a14.21,14.21,0,0,1-2.48,4.15A10.63,10.63,0,0,1,829.26,94a17.63,17.63,0,0,1-8.3,1.93H819c-3.11,0-4.79-.4-5-1.18a17.09,17.09,0,0,1-.59-5.26V78c0-.44,1.78-.67,5.33-.67q4.82,0,5.78.6a1.7,1.7,0,0,0,.29.18,1.11,1.11,0,0,1,.3.19,1.81,1.81,0,0,1,.26.37,4.06,4.06,0,0,1,.33.66c.1.25.23.62.37,1.11s.33,1.09.52,1.78c.15.4.55.59,1.19.59a2.55,2.55,0,0,0,1.55-.29v-14a2.43,2.43,0,0,0-1.63-.37c-.69,0-1.06.17-1.11.52a16,16,0,0,0-.44,2.15c-.15,1.23-.35,2-.6,2.14s-2,.3-5,.3h-3.93q-3.18,0-3.18-.45V61.45a31.41,31.41,0,0,1,.37-5.78c.1-.64,1.7-1,4.81-1h2.82a10.71,10.71,0,0,1,5.92,2,12.4,12.4,0,0,1,4.45,4.81c.14.35.49.52,1,.52a2.61,2.61,0,0,0,1.71-.37q-2.07-10.22-2.15-11-4.23,0-12.44.18c-5.49.13-9.31.19-11.48.19q-5,0-10.89-.37a2.49,2.49,0,0,0-.23,1.41c0,.88.1,1.33.3,1.33a9.48,9.48,0,0,1,2.78.74c1.31.49,2,.94,2.18,1.33A25.64,25.64,0,0,1,803,61.3v28a30.54,30.54,0,0,1-.45,6.52c-.14.39-.85.76-2.11,1.11a12.12,12.12,0,0,1-2.78.52c-.19,0-.29.49-.29,1.48a1.92,1.92,0,0,0,.29,1.26l10.82-.45q5.12,0,13.33.15t12,.15q.38-2.52,4-12.74a3.49,3.49,0,0,0-2.22-.45C835,86.85,834.64,87,834.59,87.3Z"/>
      <path class="cls-42" d="M788.54,55.37c.1-.34.79-.72,2.08-1.14a10.49,10.49,0,0,1,2.59-.63c.25,0,.37-.47.37-1.41a4.12,4.12,0,0,0-.22-1.33q-8.9.44-10,.44c-.55,0-4.22-.15-11-.44a2.39,2.39,0,0,0-.26,1.52c0,.81.14,1.22.34,1.22a9,9,0,0,1,2.63.66c1.21.45,1.88.87,2,1.26a24.69,24.69,0,0,1,.52,5.85V72.11a.43.43,0,0,1-.15.3q-6.66.15-8.66.15-1.63,0-8.89-.15l-.15-.22V61.67a21.52,21.52,0,0,1,.59-6.3c.15-.34.87-.72,2.15-1.14a10.7,10.7,0,0,1,2.59-.63c.2,0,.3-.4.3-1.19a3.44,3.44,0,0,0-.22-1.55c-5.93.29-9.53.44-10.82.44L744,50.86a2.69,2.69,0,0,0-.15,1.26c0,1,.1,1.48.3,1.48a8.56,8.56,0,0,1,2.59.59,3.34,3.34,0,0,1,2.07,1.41q.52,1.26.52,5.77v28.3a25.55,25.55,0,0,1-.52,6c-.15.39-.86.79-2.15,1.18a10.75,10.75,0,0,1-2.81.6c-.1,0-.15.49-.15,1.48a1.86,1.86,0,0,0,.3,1.26l4.77-.34c2.45-.17,4.31-.26,5.6-.26s3.32.1,6.11.3,4.3.3,4.55.3a4.12,4.12,0,0,0,.19-1.63c0-.74-.14-1.11-.34-1.11a10,10,0,0,1-2.55-.67c-1.26-.45-1.94-.84-2-1.19a26.17,26.17,0,0,1-.59-6.22V77.22l-.15-.14q0-.15,9.19-.23,1.69,0,8.66.15l.15.3V89.67a26.79,26.79,0,0,1-.44,5.85c-.15.4-.87.81-2.15,1.26a10.17,10.17,0,0,1-2.74.67c-.2,0-.31.4-.34,1.22a2.43,2.43,0,0,0,.26,1.52l5-.34q4.05-.25,6-.26c1.28,0,3.16.1,5.63.3s3.92.3,4.37.3a4,4,0,0,0,.22-1.26c0-1-.1-1.56-.29-1.56a10.41,10.41,0,0,1-2.56-.59q-1.89-.6-2-1.11a26.62,26.62,0,0,1-.59-6.3V61.67A26.16,26.16,0,0,1,788.54,55.37Z"/>
      <path class="cls-42" d="M734,50.78c-2.07,0-4.79.08-8.14.22s-6.08.23-8.15.23-4.78-.08-8.11-.23-6-.22-8.11-.22a22.6,22.6,0,0,1-5.11-.81L695,62a3.11,3.11,0,0,0,2.15.52c.44,0,.69-.12.74-.37a10.93,10.93,0,0,1,3-5.59,7.33,7.33,0,0,1,5-1.67,24.44,24.44,0,0,1,4.08.26,4.74,4.74,0,0,1,1.59.44,3,3,0,0,1,.41.63q.58,1.05.59,6.82V89.89a23.74,23.74,0,0,1-.52,5.7c-.15.4-.86.81-2.15,1.23a10.7,10.7,0,0,1-2.74.63c-.15,0-.22.51-.22,1.55a1.72,1.72,0,0,0,.3,1.19l4.88-.34q3.86-.25,5.86-.26t5.85.3q3.93.3,4.44.3a4.47,4.47,0,0,0,.15-1.34c0-.93-.1-1.4-.3-1.4a10,10,0,0,1-2.55-.67c-1.26-.45-1.94-.84-2-1.19a24.51,24.51,0,0,1-.59-6V62.86a26.17,26.17,0,0,1,.59-6.6q.3-1.34,6.3-1.33t7.92,7.33c.05.25.3.37.74.37a3.11,3.11,0,0,0,2.15-.52L739.15,50A22.6,22.6,0,0,1,734,50.78Z"/>
    </g>
    <g>
      <path class="cls-41" d="M221.07,216q-12.12,0-25-10.35a101.7,101.7,0,0,1-20.86-22.14q-4.14-6-11-15.44t-11.78-17.2q-5-7.8-11.94-19.59-1.61-2.55.95-3.5,14.34-4.78,26.76-20.7t12.42-37.27q0-14.64-7.65-25.64a50,50,0,0,0-19.42-16.72A110.91,110.91,0,0,0,130,19a101.35,101.35,0,0,0-22.62-2.71q-9.56,0-22.77.16t-21.82.16Q45.25,16.59,16,15q-1,1-1,6.05,0,5.73,1.27,5.73,3.51,0,12,3.19c5.62,2.13,8.76,4,9.39,5.73Q39.53,43,39.52,60.54v120.4q0,20.7-1.91,28-.95,2.55-9.07,4.78T16.59,216c-.85,0-1.27,2.13-1.27,6.37q0,4.14,1.27,5.41l46.5-1.91q10.51,0,48.73,1.91a19.41,19.41,0,0,0,.64-5.73c0-4-.43-6.05-1.27-6.05q-4.78,0-14.34-2.23t-10.51-6.05q-2.24-9.87-2.23-26.12V138.26q0-5.1,2.87-5.1a12.83,12.83,0,0,1,3.5.32,12.87,12.87,0,0,1,4,3.19,66.36,66.36,0,0,1,5.9,7.64q3.49,5.1,6.53,9.71T115,166.6q5.08,8,8.28,13.06,6.36,9.89,10.19,15a118.27,118.27,0,0,0,11.63,12.74,60.67,60.67,0,0,0,15.6,11.47,100.09,100.09,0,0,0,20.7,6.84,124.75,124.75,0,0,0,28.51,3,80.2,80.2,0,0,0,11.15-.64,15.65,15.65,0,0,0,1.27-6.37C222.34,218.94,221.91,217,221.07,216Zm-115-100.33h-8.6a30.32,30.32,0,0,1-4.78-.31,12.63,12.63,0,0,1-4.14-1.6,7.73,7.73,0,0,1-3.34-4.14A21.37,21.37,0,0,1,84.11,102V67.55q.31-28.66,3.83-31.21t14.65-2.55q29.61,0,29.62,42.36,0,17.84-6.85,28.67T106.09,115.64Z"/>
      <path class="cls-41" d="M680.89,269.45q-6.33,0-13.08-5.42a53.19,53.19,0,0,1-10.92-11.58q-2.16-3.16-5.75-8.09t-6.16-9q-2.6-4.08-6.25-10.25c-.56-.89-.39-1.5.5-1.84q7.5-2.49,14-10.83a30.79,30.79,0,0,0,6.5-19.5,22.93,22.93,0,0,0-4-13.41,26.14,26.14,0,0,0-10.17-8.75,58,58,0,0,0-12.33-4.42A53.1,53.1,0,0,0,621.4,165q-5,0-11.92.08c-4.61.06-8.42.08-11.42.08q-9.16,0-24.49-.83c-.34.33-.5,1.39-.5,3.17q0,3,.66,3a21.09,21.09,0,0,1,6.25,1.66c2.94,1.11,4.59,2.11,4.92,3q1,3.84,1,13v63q0,10.83-1,14.66c-.33.89-1.92,1.72-4.75,2.5a26.65,26.65,0,0,1-6.25,1.17c-.45,0-.67,1.11-.67,3.33,0,1.45.22,2.39.67,2.83l24.33-1q5.5,0,25.5,1a10.15,10.15,0,0,0,.33-3c0-2.11-.22-3.16-.66-3.16a36.28,36.28,0,0,1-7.5-1.17c-3.34-.78-5.17-1.83-5.5-3.17a64,64,0,0,1-1.17-13.66V228.78c0-1.77.5-2.66,1.5-2.66a3.88,3.88,0,0,1,3.91,1.83,35.51,35.51,0,0,1,3.09,4q1.83,2.67,3.41,5.08c1.06,1.62,2.48,3.81,4.26,6.59s3.22,5,4.33,6.83q3.33,5.16,5.33,7.83a62.45,62.45,0,0,0,6.08,6.67,32.29,32.29,0,0,0,8.17,6,52.17,52.17,0,0,0,10.83,3.58,65.68,65.68,0,0,0,14.92,1.58,42.83,42.83,0,0,0,5.83-.33,8.18,8.18,0,0,0,.67-3.33A5,5,0,0,0,680.89,269.45ZM620.73,217h-4.5a15.86,15.86,0,0,1-2.5-.16,6.75,6.75,0,0,1-2.17-.84,4.09,4.09,0,0,1-1.75-2.16,11.28,11.28,0,0,1-.58-4v-18q.16-15,2-16.34c1.22-.88,3.77-1.33,7.67-1.33q15.5,0,15.49,22.17,0,9.33-3.58,15A11.31,11.31,0,0,1,620.73,217Z"/>
      <path class="cls-41" d="M456.46,165q-3.81.33-17.67,1.44T417,167.57q-12.75,0-42-2.55-1,1.28-.64,6.53c.21,3.5.74,5.26,1.59,5.26q3.83,0,12.9,2.86t12,6.37q4.13,4.78,4.14,22.93v74.85q0,10.83-.64,13.06-14.66-19.42-39.49-49.69t-40.61-50.8Q308.37,175.86,303,165q-20.38,2.55-31.21,2.55-8.3,0-23.41-1.11T228.1,165q-1.28,1.28-.95,6.53c.2,3.5.74,5.26,1.59,5.26a95.64,95.64,0,0,1,14,1.59q9.56,1.59,11.15,3.82,4.78,6.06,4.78,22.61V330q0,18.17-3.19,23.25a20.69,20.69,0,0,1-9.23,7.81,40.44,40.44,0,0,1-10.51,3.66,49.7,49.7,0,0,1-7.33.64c-.64,0-.95,2-.95,6.05,0,3.18.31,5.09.95,5.73q5.73-.31,18.47-1.43t21-1.12q8.28,0,24.21,1.28t18.79,1.27q.63-1.27.48-6.69T310.27,365q-4.77,0-15.28-3t-13.38-8.44q-2.55-5.08-2.55-22.61V209L408.69,370.13q6,7.33,9.87,7.33c4.46,0,7.11-.43,8-1.28q-1.29-33.12-1.28-44.58v-121q0-17.83,4.46-23.25,8.91-10.51,26.44-10.51c1.05,0,1.59-2,1.59-6.05A12.65,12.65,0,0,0,456.46,165Z"/>
      <path class="cls-41" d="M302.15,124.74a25.12,25.12,0,0,1-6.83-1.41c-3-1-4.84-2.31-5.5-4.09q-2.34-6-5.5-13.66l-34.17-84.5a4.64,4.64,0,0,0-4-2.16q-4.34,0-6.16,4.33l-36.83,84.66-.84,2c-.55,1.22-1.3,2.81-2.24,4.75a42.91,42.91,0,0,1-2.76,4.92c-.77,1.22-2.72,2.41-5.83,3.58a22.26,22.26,0,0,1-6.67,1.75c-.22,0-.33,1.17-.33,3.5a3.52,3.52,0,0,0,.67,2.5q3.17-.16,9-.75t10-.58c2.77,0,6.36.19,10.75.58s7.3.64,8.74.75a12.18,12.18,0,0,0,.34-3.5c0-1.67-.17-2.56-.5-2.67a37.65,37.65,0,0,1-3.92-.24,16.23,16.23,0,0,1-5.25-1.76c-2-1-3-2.38-3-4.16s1.11-5.17,3.34-10.17l5.5-12.66a1.4,1.4,0,0,1,1.16-.84q5.84-.16,16.83-.16,12.84,0,16,.16a1.81,1.81,0,0,1,1.17.67l5,12.16q4.17,10.85,4.17,11.17,0,2.67-3.84,4.25a19.43,19.43,0,0,1-7.5,1.58q-.66,0-.66,2.76c0,1.82.22,3,.66,3.41q24-1.33,25.17-1.33c2.89,0,7.52.22,13.92.66s9.8.67,10.24.67a8.83,8.83,0,0,0,.34-3.33C302.82,125.69,302.59,124.74,302.15,124.74ZM250,84.41q-5.18.34-11.84.34c-4.88,0-9-.17-12.33-.5-.22,0-.33-.23-.33-.67l13-29.83,12,29.83Z"/>
      <path class="cls-41" d="M386.57,98.58a9.35,9.35,0,0,0-1.09,2.58c-.61,1.73-1.5,3.83-2.66,6.34a20.85,20.85,0,0,1-3.92,5.91,29.15,29.15,0,0,1-21.33,9q-16.83,0-26-14.25T322.4,73.08q0-44.65,29.83-44.66A42.43,42.43,0,0,1,367,30.84a27.53,27.53,0,0,1,10.33,6.24A36.73,36.73,0,0,1,383,44.25a27.32,27.32,0,0,1,2.75,6.33c1.67.34,2.56.5,2.67.5q4.5,0,4.5-2.5t-1.25-13.5q-1.25-11-2.09-11.16a162.6,162.6,0,0,0-38.16-4.84q-23.49,0-39.24,16.92T296.41,76.58a53.69,53.69,0,0,0,15.66,38.58q15.66,16.25,37.66,16.25a108.5,108.5,0,0,0,37.5-6.83c1.11-.45,2.53-4.22,4.25-11.34s2.58-11.44,2.58-13C393.62,99.13,391.12,98.58,386.57,98.58Z"/>
      <path class="cls-41" d="M553.23,180.37q-15.84-16.58-37.83-16.58t-37.75,16.58Q461.9,197,461.9,220.28t15.75,39.84q15.75,16.49,37.75,16.49t37.83-16.49q15.84-16.5,15.83-39.84T553.23,180.37Zm-16.42,74.25q-6.24,12.66-18.74,12.66a22.32,22.32,0,0,1-14.34-4.92,31.07,31.07,0,0,1-9.41-12.83,84.2,84.2,0,0,1-4.84-16.16,89.18,89.18,0,0,1-1.58-16.75,91.39,91.39,0,0,1,2.25-21.33,35.17,35.17,0,0,1,8.08-15.75,19,19,0,0,1,14.67-6.42,24.2,24.2,0,0,1,14.83,4.58A28.44,28.44,0,0,1,537.07,190a77.48,77.48,0,0,1,4.58,16,103.46,103.46,0,0,1,1.41,17.42Q543.06,241.95,536.81,254.62Z"/>
      <path class="cls-41" d="M486,100.91c-1.44,0-2.22.34-2.33,1a31.75,31.75,0,0,1-5.58,9.33,24.12,24.12,0,0,1-6.42,5.67A39.84,39.84,0,0,1,453,121.24h-4.34q-10.5,0-11.33-2.66Q436,114.74,436,106.75V81.08q0-1.5,12-1.5,10.83,0,13,1.33a2.41,2.41,0,0,0,.66.42,2.8,2.8,0,0,1,.67.42,6.38,6.38,0,0,1,.58.83,8.74,8.74,0,0,1,.75,1.5c.22.56.5,1.39.84,2.5s.72,2.44,1.16,4c.34.89,1.22,1.33,2.67,1.33,1.89,0,3-.22,3.5-.66V59.75c-.56-.56-1.78-.83-3.67-.83-1.56,0-2.39.38-2.5,1.16a34.45,34.45,0,0,0-1,4.83c-.33,2.78-.78,4.39-1.33,4.84s-4.45.66-11.33.66h-8.84q-7.15,0-7.16-1V43.75a70.89,70.89,0,0,1,.83-13q.33-2.16,10.83-2.17H454q6.5,0,13.33,4.5a28,28,0,0,1,10,10.84c.33.77,1.11,1.16,2.33,1.16,2,0,3.27-.27,3.83-.83q-4.67-23-4.83-24.67-9.5,0-28,.42t-25.83.42q-11.16,0-24.5-.84c-.33.34-.5,1.39-.5,3.17,0,2,.23,3,.67,3a21.27,21.27,0,0,1,6.25,1.67q4.41,1.66,4.92,3,1,3.82,1,13v63q0,10.83-1,14.67c-.34.89-1.92,1.72-4.76,2.5a26.89,26.89,0,0,1-6.24,1.16c-.45,0-.67,1.11-.67,3.34a4.14,4.14,0,0,0,.67,2.83l24.33-1q11.49,0,30,.33t27,.34q.84-5.67,9-28.67C490.29,101.25,488.62,100.91,486,100.91Z"/>
      <path class="cls-41" d="M777,162.62a50.94,50.94,0,0,1-11.5,1.84q-7,0-18.33.5t-18.34.5q-7,0-18.24-.5t-18.25-.5a50.94,50.94,0,0,1-11.5-1.84l-3.17,27.17c.78.77,2.39,1.16,4.84,1.16,1,0,1.55-.27,1.66-.83q2.34-8.84,6.67-12.58A16.45,16.45,0,0,1,702,173.79a54.16,54.16,0,0,1,9.17.58c2.11.39,3.31.73,3.58,1a5.51,5.51,0,0,1,.92,1.42q1.33,2.33,1.33,15.33v60.33a54.56,54.56,0,0,1-1.16,12.83q-.51,1.34-4.84,2.75a23.15,23.15,0,0,1-6.16,1.42c-.34,0-.5,1.16-.5,3.5a3.87,3.87,0,0,0,.66,2.66l11-.74q8.67-.58,13.17-.59,4.33,0,13.16.67c5.89.44,9.23.66,10,.66a9.76,9.76,0,0,0,.34-3c0-2.11-.23-3.16-.67-3.16a22,22,0,0,1-5.75-1.5q-4.25-1.5-4.58-2.67a55.53,55.53,0,0,1-1.34-13.5V191.62q0-10.17,1.34-14.83.66-3,14.16-3,13.66,0,17.83,16.5c.12.55.67.83,1.67.83q3.67,0,4.83-1.17Z"/>
      <path class="cls-41" d="M897.37,269.28a24,24,0,0,1-5.75-1.33q-4.25-1.33-4.58-2.5a59.18,59.18,0,0,1-1.34-14.17V189A57.79,57.79,0,0,1,887,174.79q.33-1.17,4.66-2.58a23.65,23.65,0,0,1,5.83-1.42c.56,0,.84-1.06.84-3.17a9.53,9.53,0,0,0-.5-3q-20,1-22.5,1-1.83,0-24.83-1c-.45.45-.64,1.59-.58,3.42s.3,2.75.74,2.75a19.84,19.84,0,0,1,5.92,1.5q4.08,1.5,4.58,2.83a55.83,55.83,0,0,1,1.17,13.17v24.16a1,1,0,0,1-.33.67q-15,.33-19.5.33-3.67,0-20-.33l-.33-.5V189q0-10.66,1.33-14.16.5-1.17,4.83-2.58a23.7,23.7,0,0,1,5.84-1.42q.66,0,.66-2.67a7.8,7.8,0,0,0-.5-3.5q-20,1-24.33,1l-23.16-1c-.23.22-.34,1.17-.34,2.84,0,2.22.23,3.33.67,3.33a19.5,19.5,0,0,1,5.83,1.33c2.56.89,4.11,1.95,4.67,3.17q1.17,2.84,1.17,13V252q0,9-1.17,13.5c-.33.89-2,1.78-4.83,2.66a24.56,24.56,0,0,1-6.34,1.34q-.33,0-.33,3.33c0,1.45.22,2.39.67,2.83l10.75-.74q8.25-.58,12.58-.59T824,275q9.4.66,10.25.66a9.11,9.11,0,0,0,.41-3.66c0-1.67-.3-2.5-.75-2.5a22,22,0,0,1-5.75-1.5q-4.25-1.5-4.58-2.67a58.27,58.27,0,0,1-1.33-14V224l-.34-.33q0-.33,20.67-.5,3.83,0,19.5.33l.33.67V252q0,9.33-1,13.16-.5,1.33-4.83,2.84a22.28,22.28,0,0,1-6.17,1.5c-.44,0-.69.91-.75,2.75s.14,3,.58,3.41q2.17-.17,11.26-.74t13.58-.59q4.34,0,12.66.67c5.56.44,8.83.66,9.83.66a8.76,8.76,0,0,0,.5-2.83C898,270.45,897.81,269.28,897.37,269.28Z"/>
    </g>
  </g>
</svg>
